<svg xmlns="http://www.w3.org/2000/svg" xmlns:xlink="http://www.w3.org/1999/xlink" viewBox="0 0 500 500">
  <defs>
    <style>
      .cls-1, .cls-65 {
        fill: none;
      }

      .cls-2 {
        isolation: isolate;
      }

      .cls-3, .cls-4 {
        fill: #fd695b;
      }

      .cls-23, .cls-3, .cls-39, .cls-43 {
        opacity: 0.6;
      }

      .cls-5 {
        clip-path: url(#clip-path);
      }

      .cls-6 {
        fill: #f7956f;
      }

      .cls-7 {
        fill: #a8664c;
      }

      .cls-8 {
        fill: #e8a0aa;
      }

      .cls-9 {
        fill: #cea3aa;
      }

      .cls-10 {
        fill: #f7c4c9;
      }

      .cls-11, .cls-20, .cls-60 {
        fill: #310a45;
      }

      .cls-12 {
        fill: #d68060;
      }

      .cls-13 {
        fill: #3a0c52;
      }

      .cls-14, .cls-15 {
        fill: #420163;
      }

      .cls-14 {
        opacity: 0.21;
      }

      .cls-14, .cls-20, .cls-25, .cls-29, .cls-38, .cls-46, .cls-53, .cls-60, .cls-66, .cls-73 {
        mix-blend-mode: multiply;
      }

      .cls-16 {
        fill: url(#Degradado_sin_nombre_5);
      }

      .cls-17 {
        fill: #d4d4d4;
      }

      .cls-18 {
        fill: #fff;
      }

      .cls-19 {
        fill: #f74d5d;
      }

      .cls-20 {
        opacity: 0.51;
      }

      .cls-21, .cls-22, .cls-58, .cls-59 {
        opacity: 0.5;
      }

      .cls-21 {
        fill: url(#Degradado_sin_nombre_46);
      }

      .cls-22 {
        fill: url(#Degradado_sin_nombre_33);
      }

      .cls-23 {
        mix-blend-mode: soft-light;
      }

      .cls-24 {
        fill: #3fc7e1;
      }

      .cls-25, .cls-38, .cls-39, .cls-56 {
        fill: #c8e0e0;
      }

      .cls-25 {
        opacity: 0.98;
      }

      .cls-26 {
        fill: #0a2845;
      }

      .cls-27 {
        fill: #071c30;
      }

      .cls-28 {
        fill: #f7a5ad;
      }

      .cls-29 {
        fill: #d5dee6;
      }

      .cls-30 {
        fill: #f7b4ba;
      }

      .cls-31 {
        fill: #f78a95;
      }

      .cls-32 {
        fill: #f79ca5;
      }

      .cls-33 {
        fill: #f7b4bb;
      }

      .cls-34 {
        fill: #f77481;
      }

      .cls-35 {
        fill: #35a8b7;
      }

      .cls-36 {
        fill: #e5d50e;
      }

      .cls-37 {
        fill: #ffc46a;
      }

      .cls-40 {
        fill: #d68160;
      }

      .cls-41 {
        fill: #f77d6f;
      }

      .cls-42 {
        fill: url(#Degradado_sin_nombre_91);
      }

      .cls-43 {
        fill: #a4b8b8;
      }

      .cls-44 {
        fill: #fc7b03;
      }

      .cls-45 {
        fill: #484a75;
      }

      .cls-46, .cls-47 {
        fill: #4f5181;
      }

      .cls-46, .cls-53 {
        opacity: 0.28;
      }

      .cls-48 {
        fill: #915861;
      }

      .cls-49 {
        fill: #965b66;
      }

      .cls-50 {
        fill: #a6656f;
      }

      .cls-51 {
        fill: #70444c;
      }

      .cls-52 {
        fill: #3a3b5a;
      }

      .cls-54 {
        fill: #5f629c;
      }

      .cls-55 {
        fill: url(#Degradado_sin_nombre_96);
      }

      .cls-57 {
        fill: #a7c4e4;
      }

      .cls-58 {
        fill: url(#Degradado_sin_nombre_46-2);
      }

      .cls-59 {
        fill: url(#Degradado_sin_nombre_33-2);
      }

      .cls-60 {
        opacity: 0.31;
      }

      .cls-61 {
        fill: url(#Degradado_sin_nombre_5-2);
      }

      .cls-62 {
        fill: url(#Degradado_sin_nombre_91-2);
      }

      .cls-63 {
        fill: #fc5803;
      }

      .cls-64 {
        fill: url(#Degradado_sin_nombre_5-3);
      }

      .cls-65 {
        stroke: #fc5803;
        stroke-miterlimit: 10;
      }

      .cls-66, .cls-67 {
        fill: #45576e;
      }

      .cls-66 {
        opacity: 0.25;
      }

      .cls-68 {
        fill: url(#Degradado_sin_nombre_93);
      }

      .cls-69 {
        fill: #ebaebb;
      }

      .cls-70 {
        fill: #f7c4cf;
      }

      .cls-71 {
        fill: #f78fa6;
      }

      .cls-72, .cls-73 {
        fill: url(#Degradado_sin_nombre_3);
      }

      .cls-74 {
        fill: url(#Degradado_sin_nombre_3-3);
      }

      .cls-75 {
        fill: url(#Degradado_sin_nombre_3-4);
      }

      .cls-76 {
        fill: url(#Degradado_sin_nombre_91-3);
      }

      .cls-77 {
        fill: url(#Degradado_sin_nombre_91-4);
      }
    </style>
    <clipPath id="clip-path">
      <rect class="cls-1" width="500" height="500"/>
    </clipPath>
    <linearGradient id="Degradado_sin_nombre_5" data-name="Degradado sin nombre 5" x1="444.43" y1="195.23" x2="444.43" y2="372.83" gradientUnits="userSpaceOnUse">
      <stop offset="0.01" stop-color="#4c0173"/>
      <stop offset="1" stop-color="#360152"/>
    </linearGradient>
    <linearGradient id="Degradado_sin_nombre_46" data-name="Degradado sin nombre 46" x1="508.71" y1="224.92" x2="525.96" y2="210.17" gradientTransform="translate(-125.91 197.87) rotate(-33.16)" gradientUnits="userSpaceOnUse">
      <stop offset="0" stop-color="#fff" stop-opacity="0"/>
      <stop offset="0.97" stop-color="#fff"/>
    </linearGradient>
    <linearGradient id="Degradado_sin_nombre_33" data-name="Degradado sin nombre 33" x1="534.28" y1="244.17" x2="551.52" y2="229.42" xlink:href="#Degradado_sin_nombre_46"/>
    <linearGradient id="Degradado_sin_nombre_91" data-name="Degradado sin nombre 91" x1="171.71" y1="422.83" x2="171.71" y2="280.22" gradientUnits="userSpaceOnUse">
      <stop offset="0" stop-color="#fc3b03"/>
      <stop offset="1" stop-color="#fc5803"/>
    </linearGradient>
    <linearGradient id="Degradado_sin_nombre_96" data-name="Degradado sin nombre 96" x1="255.35" y1="403.13" x2="255.35" y2="473.29" gradientUnits="userSpaceOnUse">
      <stop offset="0" stop-color="#04b1b5"/>
      <stop offset="1" stop-color="#03898c"/>
    </linearGradient>
    <linearGradient id="Degradado_sin_nombre_46-2" x1="242.81" y1="293.67" x2="260.06" y2="278.92" xlink:href="#Degradado_sin_nombre_46"/>
    <linearGradient id="Degradado_sin_nombre_33-2" data-name="Degradado sin nombre 33" x1="268.38" y1="312.91" x2="285.63" y2="298.17" xlink:href="#Degradado_sin_nombre_46"/>
    <linearGradient id="Degradado_sin_nombre_5-2" x1="137.93" y1="1252.03" x2="222.66" y2="1414.05" gradientTransform="matrix(0.89, 0.46, -0.46, 0.89, 520.78, -802.26)" xlink:href="#Degradado_sin_nombre_5"/>
    <linearGradient id="Degradado_sin_nombre_91-2" x1="67.42" y1="514.26" x2="67.42" y2="405.09" xlink:href="#Degradado_sin_nombre_91"/>
    <linearGradient id="Degradado_sin_nombre_5-3" x1="73.76" y1="441.76" x2="88.61" y2="441.76" xlink:href="#Degradado_sin_nombre_5"/>
    <linearGradient id="Degradado_sin_nombre_93" data-name="Degradado sin nombre 93" x1="441.11" y1="394.47" x2="441.11" y2="475.13" gradientUnits="userSpaceOnUse">
      <stop offset="0" stop-color="#516681"/>
      <stop offset="1" stop-color="#465970"/>
    </linearGradient>
    <linearGradient id="Degradado_sin_nombre_3" data-name="Degradado sin nombre 3" x1="402.02" y1="242.79" x2="483.47" y2="242.79" gradientUnits="userSpaceOnUse">
      <stop offset="0.03" stop-color="#ffd22e"/>
      <stop offset="0.86" stop-color="#ffc12e"/>
    </linearGradient>
    <linearGradient id="Degradado_sin_nombre_3-3" x1="428.19" y1="240.95" x2="457.3" y2="240.95" xlink:href="#Degradado_sin_nombre_3"/>
    <linearGradient id="Degradado_sin_nombre_3-4" x1="395.03" y1="268.55" x2="490.46" y2="268.55" xlink:href="#Degradado_sin_nombre_3"/>
    <linearGradient id="Degradado_sin_nombre_91-3" x1="495.53" y1="520.87" x2="495.53" y2="362.02" xlink:href="#Degradado_sin_nombre_91"/>
    <linearGradient id="Degradado_sin_nombre_91-4" x1="386.24" y1="520.87" x2="386.24" y2="361.88" xlink:href="#Degradado_sin_nombre_91"/>
  </defs>
  <g class="cls-2">
    <g id="Background">
      <path class="cls-3" d="M500,500H0V0H500Z"/>
      <rect class="cls-4" width="500" height="500"/>
    </g>
    <g id="Objects">
      <g class="cls-5">
        <g>
          <g>
            <g>
              <g>
                <g>
                  <g>
                    <path class="cls-6" d="M409.29,100.27c0,5.21-2.27,9.43-5.12,9.45s-5.18-4.19-5.21-9.4,2.27-9.43,5.12-9.44S409.26,95.07,409.29,100.27Z"/>
                    <path class="cls-7" d="M408.06,100.45c0,2.92-1.27,5.3-2.87,5.31s-2.92-2.36-2.93-5.28,1.27-5.3,2.87-5.31S408,97.53,408.06,100.45Z"/>
                  </g>
                  <g>
                    <path class="cls-6" d="M482.93,99.91c0,5.2-2.27,9.43-5.12,9.44s-5.18-4.19-5.21-9.39,2.27-9.43,5.12-9.45S482.9,94.7,482.93,99.91Z"/>
                    <path class="cls-7" d="M479.63,100.1c0,2.92-1.27,5.29-2.87,5.3s-2.91-2.35-2.92-5.28,1.27-5.29,2.87-5.3S479.62,97.17,479.63,100.1Z"/>
                  </g>
                </g>
                <polygon class="cls-8" points="464.66 181.47 415.13 179.75 416.93 118.18 466.45 119.9 464.66 181.47"/>
                <path class="cls-9" d="M474.25,103.22c-.87,24.92-13.44,54.36-34.91,53.61s-32.71-31.19-31.84-56.11,13.87-45.06,35.33-44.31S475.12,78.3,474.25,103.22Z"/>
                <path class="cls-10" d="M471.46,99c-7.26-2.37-9.37-17-9.23-24.35-5.62,4.32-10.58,5.9-17.76,6.11-9.26.27-17.07-2-25.71-5.57,4.52,13.52-4.32,23.53-7.25,23.64-.63,18.09,6.1,44.44,20.31,51.32a19,19,0,0,0,7.7,1.94c8.2.28,16-5.05,22-15C466.91,128.06,471.07,110.43,471.46,99Z"/>
                <path class="cls-11" d="M405.74,115.43l6.8.54-.2-18.36c5-9.38,3.51-27.7,3.51-27.7s29.67,8.63,49.29-1c0,0,1.23,21.59,4.59,28.05l.17.34L469.45,116l5.42.06L476,89.32s3.82-26.81-17.16-37.52c-6.31-3.22-14.79-1.62-21.74-1.52-8.75.13-15.38,3.31-21.6,6.94-4.85,2.83-7.81,5.56-9.11,11.62-1.26,5.88-.41,13.71-.74,25.3Z"/>
                <g>
                  <path class="cls-7" d="M441.06,117.16a16.82,16.82,0,0,1-4.84-1,.64.64,0,0,0-.69,1,9,9,0,0,0,3.73,2.65,7.53,7.53,0,0,0,1.7.36h0a7.93,7.93,0,0,0,1.72-.24,9,9,0,0,0,3.9-2.38.64.64,0,0,0-.61-1.07A16.91,16.91,0,0,1,441.06,117.16Z"/>
                  <path class="cls-12" d="M441.62,141.15a23.21,23.21,0,0,1,5.39.9c.69.2,1.25-.48.76-.92a10.42,10.42,0,0,0-4.16-2.42,10.06,10.06,0,0,0-1.89-.34h0a10.35,10.35,0,0,0-1.9.2,10.67,10.67,0,0,0-4.33,2.13c-.52.41,0,1.12.7,1A23.41,23.41,0,0,1,441.62,141.15Z"/>
                  <path class="cls-11" d="M428.85,102c-.06,1.75-1.07,3.15-2.26,3.1s-2.1-1.49-2-3.25,1.08-3.15,2.26-3.11S428.91,100.22,428.85,102Z"/>
                  <path class="cls-11" d="M458.77,103c-.06,1.75-1.07,3.14-2.26,3.1s-2.1-1.5-2-3.25,1.08-3.15,2.26-3.11S458.83,101.26,458.77,103Z"/>
                  <path class="cls-11" d="M417.92,95.61a7.34,7.34,0,0,1,3-3.23,9.25,9.25,0,0,1,4.33-1.31,9.34,9.34,0,0,1,4.44.87A7.52,7.52,0,0,1,433,94.8a.56.56,0,0,1-.19.77.54.54,0,0,1-.46.05h0a25.17,25.17,0,0,0-3.56-.94,16,16,0,0,0-3.36-.22,15.36,15.36,0,0,0-3.31.55,22.31,22.31,0,0,0-3.41,1.33h0a.54.54,0,0,1-.74-.26A.55.55,0,0,1,417.92,95.61Z"/>
                  <path class="cls-11" d="M465.05,96.73a7.32,7.32,0,0,0-3-3.23,9.16,9.16,0,0,0-4.33-1.33,9.34,9.34,0,0,0-4.44.86A7.41,7.41,0,0,0,450,95.88a.56.56,0,0,0,.19.77.57.57,0,0,0,.46,0h0a25.17,25.17,0,0,1,3.56-.94,16,16,0,0,1,3.36-.2,15.39,15.39,0,0,1,3.31.56,21,21,0,0,1,3.4,1.34h0a.55.55,0,0,0,.75-.26A.59.59,0,0,0,465.05,96.73Z"/>
                </g>
                <path class="cls-11" d="M472.66,48.22c-1.77,1.53-4.15,5.32-6.82,5.17.1-6.24-29-11.92-44.41-3.38-2.14,1.19-6.35,5.52-6,8.46l-.85,3.45c-2.07,2.56-1.07,2.64-.14,5.68,1.72,5.6,28.63,8.05,35.31,7.05,6.08-.91,15.72-3.4,18.92-9.52C471.08,60.58,474.1,53.42,472.66,48.22Z"/>
                <path class="cls-13" d="M458.1,59.86s0-.09,0-.28c-3.57.23-7.78-2.36-10.65-3.53A24.57,24.57,0,0,0,437,54.74c-3.77.18-7.19,1.51-10.78,2.21a5.11,5.11,0,0,0-.5,5.95c3,5.27,10.56,7.27,16.09,7.22,19.34-.17,24.24-10.85,24.48-14.42C463.21,59.19,458.1,59.86,458.1,59.86Z"/>
              </g>
              <g>
                <g>
                  <path class="cls-14" d="M534.24,382.3c.27-81.71.26-139.11-6.6-166.39-8.55-34-34.72-42.42-34.72-42.42l-4.8,208.81Z"/>
                  <path class="cls-15" d="M387.12,381.8,382.3,173.12s-26.16,8.39-34.72,42.51C340.73,243,340.73,300.55,341,381.8Z"/>
                  <path class="cls-14" d="M404.46,381.8l-4.8-208.31s-26.17,8.38-34.73,42.42c-6.86,27.28-6.86,84.68-6.6,165.89Z"/>
                  <path class="cls-16" d="M512,174.16c-12.32-3.59-29.68-8.27-47.22-10.57-2,2.15-2.1,5.21-4.45,7-12.85,9.55-36.73,8-45.07-6.68a172.5,172.5,0,0,0-39.46,11.6c-1.08,7.79-2.61,124.55-2.89,206.33H516C515,261,512.49,217.51,512,174.16Z"/>
                </g>
                <polygon class="cls-17" points="417.15 168.47 440.55 264.5 463.19 172.9 440.92 176.19 417.15 168.47"/>
                <polygon class="cls-18" points="415.84 162.6 441.17 176.19 423.6 195.03 415.84 162.6"/>
                <polygon class="cls-18" points="465.17 163.3 440.92 176.19 457.76 191.8 465.17 163.3"/>
                <polygon class="cls-19" points="431.06 186.71 437.8 195.47 445.41 195.58 451.28 185.83 440.92 176.19 431.06 186.71"/>
                <polygon class="cls-19" points="445.52 195.47 449.54 229.21 440.55 271.47 431.06 227.57 437.71 195.3 445.52 195.47"/>
                <path class="cls-15" d="M495.2,212.35l-30.14-48.82L437.33,274.71a205.54,205.54,0,0,0,7,23.42l49.39-56.86-15-21Z"/>
                <polygon class="cls-15" points="386.64 241.27 452.68 322.3 454.77 322.3 415.84 163.04 385.15 212.35 401.62 220.23 386.64 241.27"/>
                <polygon class="cls-20" points="472.08 322.3 462.98 296.52 482 255.47 457.99 282.39 415.84 163.04 454.77 322.3 472.08 322.3"/>
              </g>
            </g>
            <g>
              <path class="cls-11" d="M458.67,92.83c-2.67,0-9.58.63-11.37,1.62-2.37,1.3-3.37,1.17-3.37,1.17l-2.57,0h0l-2.56,0s-1,.09-3.33-1.3c-1.75-1-8.63-2-11.3-2-2.16,0-9.68.17-13,.44a1.61,1.61,0,0,0-1.47,1.66l0,1.2a1.68,1.68,0,0,0,.69,1.26,3.65,3.65,0,0,1,1.31,2.61c.28,2.48,1.48,9.76,4.6,11.94,2.82,2,8.17,3.43,14.68.78a13.57,13.57,0,0,0,3.15-2.13,17.72,17.72,0,0,0,4.56-8.18s.33-2.86,2.58-2.82,2.48,2.91,2.48,2.91a17.74,17.74,0,0,0,4.26,8.34,13.76,13.76,0,0,0,3.07,2.25c6.41,2.88,11.81,1.61,14.7-.25,3.19-2.06,4.66-9.3,5-11.76A3.68,3.68,0,0,1,472.08,98a2.47,2.47,0,0,0,.92-1.75h0a2.45,2.45,0,0,0-2.2-2.62C467.19,93.28,460.66,92.87,458.67,92.83Zm-22.48,9.06c-.55,4.34-2.12,6-3.65,7.41a12.64,12.64,0,0,1-15.33.63c-3.18-2.14-4.5-10.71-2-13.78,2-2.46,6.5-2.33,9.79-2.18,5,.23,7.76.65,9.32,1.74a4.36,4.36,0,0,1,1.82,2.44A15,15,0,0,1,436.19,101.89ZM465,110.81a12.64,12.64,0,0,1-15.29-1.2c-1.48-1.44-3-3.18-3.38-7.54a15.76,15.76,0,0,1,.24-3.73A4.39,4.39,0,0,1,448.45,96c1.59-1,4.4-1.35,9.38-1.4,3.29,0,7.83,0,9.7,2.53C469.87,100.27,468.23,108.78,465,110.81Z"/>
              <path class="cls-21" d="M434.27,95.71c-1.56-1.09-4.35-1.51-9.32-1.74-3.29-.15-7.83-.28-9.79,2.18-2.45,3.07-1.13,11.64,2,13.78a12.64,12.64,0,0,0,15.33-.63c1.53-1.39,3.1-3.07,3.65-7.41a15,15,0,0,0-.1-3.74A4.36,4.36,0,0,0,434.27,95.71Z"/>
              <path class="cls-22" d="M448.45,96c1.59-1,4.4-1.35,9.38-1.4,3.29,0,7.83,0,9.7,2.53,2.34,3.17.7,11.68-2.56,13.71a12.64,12.64,0,0,1-15.29-1.2c-1.48-1.44-3-3.18-3.38-7.54a15.72,15.72,0,0,1,.24-3.73A4.39,4.39,0,0,1,448.45,96Z"/>
              <g class="cls-23">
                <path class="cls-18" d="M419.05,94.16l-4.78,10.27a10.93,10.93,0,0,0,2.09,4.73l7.1-15.24A22.42,22.42,0,0,0,419.05,94.16Z"/>
                <path class="cls-18" d="M425,94l-.55,0L417,109.79l.19.14a14.09,14.09,0,0,0,1.74,1l7.85-16.85Z"/>
              </g>
              <g class="cls-23">
                <path class="cls-18" d="M451.18,95l-4.47,9.59a9.35,9.35,0,0,0,2.29,4.32l6.67-14.3A32.44,32.44,0,0,0,451.18,95Z"/>
                <path class="cls-18" d="M457.83,94.57l-1.2,0-7,15,0,0a9.9,9.9,0,0,0,1.77,1.37l7.65-16.41Z"/>
              </g>
            </g>
          </g>
          <g>
            <path class="cls-11" d="M430.51,135a25.21,25.21,0,0,0,10.81-3.18c.31-.17,3.88,1.59,4.39,1.77,7,2.51,14.89.1,17.77-7.35-2.63.9-6.8-1.43-9.43-2.3-4.13-1.37-9.88-2.14-12.58-.25-5.43-2-9.6-.74-14,1-2.81,1.11-5.85,2.57-8.72,1.6-.21-.08-.41-.19-.62-.28.61,2.11,1.29,4.25,2.95,5.76A12.94,12.94,0,0,0,430.51,135Z"/>
            <path class="cls-13" d="M422.24,130a12.07,12.07,0,0,0,6.32,2c4,.41,9,.24,11.81-3.11a.52.52,0,0,1,.62-.11c5.25,3,16,5.12,20.12-.35a23.12,23.12,0,0,1-5.7-1.75c-.74-.31-1.43-.59-2-.78-4.45-1.47-9.07-1.69-10.76-.52l-.89.62-1-.38c-4.75-1.78-8.31-.67-12.48,1l-.83.33a17.77,17.77,0,0,1-6.79,1.72C421.17,129.13,421.69,129.58,422.24,130Z"/>
          </g>
        </g>
        <g>
          <g>
            <g>
              <path class="cls-24" d="M27.62,361.8,19.91,211.56s-9.47-3.33-25.8,10C-20.67,233.66-7,341.51-4.23,361.8Z"/>
              <path class="cls-25" d="M41.43,361.8,34,216.07s-9.48-3.34-25.81,10C-5.75,237.45,5.56,333.56,9.22,361.8Z"/>
            </g>
            <g>
              <path class="cls-24" d="M116.65,361.05c2.72-20.29,16.43-128.14,1.65-140.22-16.32-13.35-25.8-10-25.8-10L84.8,361.05Z"/>
              <path class="cls-25" d="M103.61,361.05c3.29-24.95,15.65-126.28,1.35-138-16.32-13.35-25.8-10-25.8-10l-7.58,148Z"/>
            </g>
            <circle class="cls-26" cx="75.03" cy="167.25" r="14.74" transform="translate(-104.98 201.84) rotate(-76.72)"/>
            <circle class="cls-27" cx="72.22" cy="166.9" r="13.16"/>
            <path class="cls-24" d="M21.23,314.44c0,14.86.75,38.19.83,47.36H93.29c.08-9.17.83-32.5.83-47.36.64-10.55,12.92-25.29,13.16-35.73.53-23.07-4-17.56-5-36.85,0-.73-.71-21-.56-30.39-11.1-2.45-27.4-4.63-41.79-6.27v-.5l-2.26.25-2.26-.25v.5C41,206.84,24.73,209,13.63,211.47c.15,9.39-.52,29.66-.56,30.39-1,19.29-5.53,13.78-5,36.85C8.31,289.15,20.59,303.89,21.23,314.44Z"/>
            <path class="cls-28" d="M73.11,209.78a10,10,0,0,1-.48,3c-1.78,5.63-8.44,15.86-20.07,15.35-9.68-.42-17-7.14-20.33-14.13A13.18,13.18,0,0,1,31,208.43V161.21H73.11Z"/>
            <path class="cls-29" d="M30.61,181.19c-.05.73.38,1.51.35,2.23,0,1.06-.08,2.45.05,3.49,4.55,8.77,11.18,14.74,20.12,14.74,10.67,0,18.46-9.05,22.79-20.46Z"/>
            <path class="cls-30" d="M81.7,141.8c0,23.38-10.16,52.47-31.14,52.47s-31.35-28.56-31.35-52S29.59,100,50.56,100,81.7,118.41,81.7,141.8Z"/>
            <path class="cls-10" d="M82,140.74c-2.23-3.84-23.52-17.66-23.85-21.06.13,1.4-26.15,19.66-38.66,16.83-.07,1.2,1.14,6.89,1.1,8.1-.84,21.78,9.44,49.66,29.61,49.66,19.1,0,30.77-24,30.94-45.45C81.19,146.94,83,142.46,82,140.74Z"/>
            <path class="cls-31" d="M50.42,162a17,17,0,0,1-4.76-.77.62.62,0,0,0-.64,1,8.84,8.84,0,0,0,3.73,2.46,7.28,7.28,0,0,0,1.67.29h0a7.47,7.47,0,0,0,1.67-.29,8.84,8.84,0,0,0,3.73-2.46.62.62,0,0,0-.64-1A17,17,0,0,1,50.42,162Z"/>
            <g>
              <ellipse class="cls-26" cx="35.36" cy="147.1" rx="2.1" ry="3.11"/>
              <path class="cls-26" d="M27.87,140.89a7.15,7.15,0,0,1,3.21-3.1,10.58,10.58,0,0,1,4.68-1.2,11.39,11.39,0,0,1,4.81.95,8.3,8.3,0,0,1,3.65,2.87.52.52,0,0,1-.2.75.67.67,0,0,1-.5,0h0a29.38,29.38,0,0,0-3.86-1,19.07,19.07,0,0,0-3.65-.28,18.38,18.38,0,0,0-3.58.46,24.16,24.16,0,0,0-3.68,1.24h0a.66.66,0,0,1-.81-.27A.5.5,0,0,1,27.87,140.89Z"/>
            </g>
            <g>
              <path class="cls-26" d="M63.87,147.1c0,1.72.94,3.11,2.1,3.11s2.1-1.39,2.1-3.11S67.13,144,66,144,63.87,145.38,63.87,147.1Z"/>
              <path class="cls-26" d="M73.45,140.89a7.12,7.12,0,0,0-3.2-3.1,10.58,10.58,0,0,0-4.68-1.2,11.41,11.41,0,0,0-4.82.95,8.27,8.27,0,0,0-3.64,2.87.5.5,0,0,0,.2.75.67.67,0,0,0,.5,0h0a29.92,29.92,0,0,1,3.87-1,19,19,0,0,1,3.65-.28,18.38,18.38,0,0,1,3.58.46,24.53,24.53,0,0,1,3.68,1.24h0a.66.66,0,0,0,.81-.27A.5.5,0,0,0,73.45,140.89Z"/>
            </g>
            <path class="cls-32" d="M37,162.46c0,2.29-2.55,4.15-5.69,4.15s-5.68-1.86-5.68-4.15,2.55-4.16,5.68-4.16S37,160.16,37,162.46Z"/>
            <path class="cls-32" d="M74.59,162.46c0,2.29-2.54,4.15-5.68,4.15s-5.68-1.86-5.68-4.15,2.54-4.16,5.68-4.16S74.59,160.16,74.59,162.46Z"/>
            <path class="cls-10" d="M21.75,148.79c.7,4.64-.85,8.71-3.46,9.11s-5.31-3-6-7.67.84-8.71,3.46-9.11S21,144.16,21.75,148.79Z"/>
            <path class="cls-33" d="M17.62,145.18a1.22,1.22,0,0,0-.27,0c-1.42.21-2.26,2.35-1.89,4.77s1.7,4.05,3.06,4C18.12,151,17.9,148.11,17.62,145.18Z"/>
            <g>
              <path class="cls-10" d="M89.47,150.84c-1.22,4.53-4.28,7.64-6.83,7s-3.64-4.92-2.42-9.44,4.27-7.64,6.82-7S90.68,146.32,89.47,150.84Z"/>
              <path class="cls-33" d="M84.67,145.37a1.22,1.22,0,0,1,.27,0c1.41.27,2.16,2.44,1.68,4.85s-1.88,4-3.23,3.86C83.92,151.2,84.27,148.28,84.67,145.37Z"/>
            </g>
            <path class="cls-26" d="M21.85,168s-2.29-24.57.52-32.3c0,0,28.08-8.6,36.16-21.58S56.42,95.64,46.94,96c-6,.22-33.34,3.51-30,41.59C16.4,152,21.85,168,21.85,168Z"/>
            <path class="cls-26" d="M67.3,100.2c-3.07-1.7-8.58-1-9.87,2.22-2.23,5.66-3.65,14.68,4.83,22.31,13.51,12.16,20.4,19.83,17.16,38.48C79.42,163.21,98.37,117.31,67.3,100.2Z"/>
            <g>
              <path class="cls-34" d="M60.55,174s-.21-.08-.26-.08c-3.79-.58-4.48-3-10.65-2.44-1.77.16-5.15,2.14-6.92,2.31a1.76,1.76,0,0,1-.23,0,4.92,4.92,0,0,0-.77,1.92c3.05,4.15,6.47,8.74,11.53,7.56,3.15-.74,5.56-4.31,7.39-7.22a1.61,1.61,0,0,1,.45-.45A4.45,4.45,0,0,0,60.55,174Z"/>
              <path class="cls-18" d="M42.89,173.77a1.22,1.22,0,0,0-1.08,2c1.86,2.11,5.41,3.66,9.52,3.66s7.66-1.55,9.53-3.66a1.22,1.22,0,0,0-1.08-2A76.92,76.92,0,0,1,42.89,173.77Z"/>
            </g>
            <path class="cls-19" d="M73.1,205.16a36,36,0,0,1-42.13,0v-6.5a36,36,0,0,0,42.13,0Z"/>
            <g>
              <path class="cls-19" d="M73.27,200.07s1.06-15.27,18.43-19.48C91.7,180.59,91.7,197.79,73.27,200.07Z"/>
              <path class="cls-19" d="M73.7,200.86S84.27,190,100.07,198C100.07,198,89.05,211,73.7,200.86Z"/>
            </g>
            <g>
              <path class="cls-24" d="M75.27,97.76l-10.79-22a5.89,5.89,0,0,0-5.29-3.3h-15a5.92,5.92,0,0,0-5.3,3.3l-10.78,22A5.93,5.93,0,0,0,31.59,106l17,5.69a9,9,0,0,0,5.67,0L71.78,106A5.94,5.94,0,0,0,75.27,97.76Z"/>
              <path class="cls-35" d="M75.27,97.76l-10.79-22a5.89,5.89,0,0,0-5.29-3.3H51.38v39.7a8.87,8.87,0,0,0,2.84-.44L71.78,106A5.94,5.94,0,0,0,75.27,97.76Z"/>
              <polygon class="cls-36" points="51.41 104.61 28.04 97.77 30.53 92.94 51.35 98.94 72.79 92.38 75.03 97.24 51.41 104.61"/>
            </g>
            <path class="cls-19" d="M78.06,201.65A4.1,4.1,0,1,1,74,197.26,4.25,4.25,0,0,1,78.06,201.65Z"/>
          </g>
          <path class="cls-37" d="M100.38,268.28a.55.55,0,0,0-.7-.35l-.07,0a5.77,5.77,0,0,1-3.4-.08c-1.07-.28-2.19-.77-3.62-1.18a12.47,12.47,0,0,0-2.37-.45,6.38,6.38,0,0,0-2.8.34,5,5,0,0,0-2.36,1.78l-.08.12-.08-.12a5,5,0,0,0-2.35-1.78,6.44,6.44,0,0,0-2.81-.34,12.47,12.47,0,0,0-2.37.45c-1.43.41-2.55.9-3.62,1.18a5.77,5.77,0,0,1-3.4.08l-.07,0a.55.55,0,0,0-.68.75,4.15,4.15,0,0,0,1.77,1.87,6.89,6.89,0,0,0,2.44.81,15.89,15.89,0,0,0,4.52-.2c.64-.09,1.22-.15,1.72-.18s.87,0,1.31,0l1.32.05a3.68,3.68,0,0,1,1.7.48l.12.07.07,0a.68.68,0,0,0,.4,0,.65.65,0,0,0,.49-.06l.12-.07a3.72,3.72,0,0,1,1.71-.48l1.32-.05c.44,0,.76,0,1.3,0s1.08.09,1.72.18a15.89,15.89,0,0,0,4.52.2,6.82,6.82,0,0,0,2.44-.81,4.12,4.12,0,0,0,1.78-1.87A.55.55,0,0,0,100.38,268.28Z"/>
          <path class="cls-36" d="M67.59,88.47a.55.55,0,0,0-.7-.36l-.07,0a5.69,5.69,0,0,1-3.4-.07c-1.07-.28-2.19-.78-3.62-1.19a12.49,12.49,0,0,0-2.37-.44,6.22,6.22,0,0,0-2.8.33,5.1,5.1,0,0,0-2.36,1.79l-.08.12-.08-.12a5.13,5.13,0,0,0-2.35-1.79A6.28,6.28,0,0,0,47,86.43a12.49,12.49,0,0,0-2.37.44c-1.43.41-2.55.91-3.62,1.19a5.69,5.69,0,0,1-3.4.07l-.07,0a.56.56,0,0,0-.68.76,4.13,4.13,0,0,0,1.77,1.86,6.91,6.91,0,0,0,2.44.82,15.5,15.5,0,0,0,4.52-.21c.64-.09,1.22-.14,1.72-.18s.87,0,1.31,0l1.32.06a3.56,3.56,0,0,1,1.7.48l.12.07.07,0a.61.61,0,0,0,.4,0,.6.6,0,0,0,.49,0l.12-.07a3.6,3.6,0,0,1,1.71-.48l1.32-.06c.44,0,.76,0,1.3,0s1.08.09,1.72.18a15.5,15.5,0,0,0,4.52.21,6.84,6.84,0,0,0,2.44-.82,4.1,4.1,0,0,0,1.78-1.86A.55.55,0,0,0,67.59,88.47Z"/>
          <path class="cls-18" d="M80.57,221.23c-1.73-6.71-5.75-11.54-7.82-15L51.09,271.44c1.12,3,2,6.14,3.3,9.06a54.77,54.77,0,0,0,10.16-13.44,57,57,0,0,0,4.6-11.41L64.49,241l17.86-1.47A59.6,59.6,0,0,0,80.57,221.23Z"/>
          <path class="cls-18" d="M60.51,288.32,30.42,207.13a58.47,58.47,0,0,0-6.14,15.44,59.85,59.85,0,0,0-1.48,18.36l17.88,1.18-4.42,14.7A57.41,57.41,0,0,0,41,268.14,55.06,55.06,0,0,0,60.51,288.32Z"/>
          <polygon class="cls-38" points="60.51 351.72 66.54 351.72 65.55 288.71 52.74 266.94 60.51 288.32 60.51 351.72"/>
          <path class="cls-37" d="M56.07,305.2a3.51,3.51,0,1,1-3.51-3.51A3.52,3.52,0,0,1,56.07,305.2Z"/>
          <path class="cls-37" d="M56.07,324.16a3.51,3.51,0,1,1-3.51-3.51A3.51,3.51,0,0,1,56.07,324.16Z"/>
          <path class="cls-37" d="M56.07,343.12a3.51,3.51,0,1,1-3.51-3.51A3.51,3.51,0,0,1,56.07,343.12Z"/>
        </g>
        <g>
          <g>
            <path class="cls-26" d="M142.2,211.25c-1.34,7.9-6.71,5.56-12.73,11.39-7.21,7-5.33,15.44-9.93,20.4s-8.15,11.59-7.11,18.28,8.3,12.45,14.61,10a18.05,18.05,0,0,0,32.5-6.11Z"/>
            <path class="cls-27" d="M152.43,209.39c-1.34,7.9-6.71,5.56-12.73,11.39-7.21,7-5.33,15.44-9.93,20.4s-8.15,11.59-7.11,18.28,8.3,12.45,14.61,10a18,18,0,0,0,32.5-6.11Z"/>
          </g>
          <g>
            <path class="cls-26" d="M194.39,211.25c1.34,7.9,6.7,5.56,12.73,11.39,7.21,7,5.33,15.44,9.93,20.4s8.15,11.59,7.1,18.28-8.3,12.45-14.6,10A18.06,18.06,0,0,1,177,265.2Z"/>
            <path class="cls-27" d="M184.16,209.39c1.34,7.9,6.7,5.56,12.73,11.39,7.21,7,5.33,15.44,9.93,20.4s8.15,11.59,7.1,18.28-8.3,12.45-14.6,10a18.06,18.06,0,0,1-32.51-6.11Z"/>
          </g>
          <g>
            <path class="cls-6" d="M142.18,232.67c.42,4.12-1.35,7.65-4,7.89s-5.06-2.91-5.48-7,1.35-7.65,4-7.89S141.76,228.56,142.18,232.67Z"/>
            <path class="cls-7" d="M138.33,229.3a2.44,2.44,0,0,0-.27,0c-1.41.12-2.37,2-2.15,4.12s1.44,3.64,2.78,3.67C138.47,234.49,138.42,231.9,138.33,229.3Z"/>
          </g>
          <g>
            <path class="cls-6" d="M192.74,232.52c-.42,4.12,1.35,7.65,4,7.88s5.05-2.91,5.47-7-1.35-7.65-3.95-7.88S193.16,228.4,192.74,232.52Z"/>
            <path class="cls-7" d="M196.6,229.15a1.23,1.23,0,0,1,.27,0c1.4.13,2.36,2,2.14,4.13s-1.44,3.64-2.78,3.66C196.46,234.34,196.5,231.74,196.6,229.15Z"/>
          </g>
          <g>
            <path class="cls-18" d="M143.15,418.24l-7.38-134.62s-9.07-3-24.7,9c-14.15,10.83-1,107.46,1.58,125.65Z"/>
            <path class="cls-39" d="M156.37,418.24l-7.15-130.59s-9.08-3-24.71,9c-13.31,10.19-2.48,96.31,1,121.62Z"/>
            <path class="cls-18" d="M228.4,418.24C231,400.05,244.13,303.42,230,292.59c-15.63-12-22.78-9.58-22.78-9.58l-9.3,135.23Z"/>
            <path class="cls-39" d="M215.91,418.24c3.15-22.36,15-113.16,1.3-123.64-15.63-12-24.71-9-24.71-9l-7.26,132.61Z"/>
            <path class="cls-18" d="M214.64,310.76c0-.65-.68-18.81-.54-27.23-5.64-1.17-12.7-2.26-20.13-3.25-.65,2.37-1.4,4.71-2.24,7-3.57,9.85-10.92,24.86-23.61,23.64-7.22-.7-13.2-6.2-17.17-11.89a49.33,49.33,0,0,1-7.88-17.8c-4.88.73-9.43,1.5-13.32,2.3.15,8.42-.5,26.58-.53,27.23-1,17.29-3.75,13.28-3.24,33.95.23,9.35,10.44,21.63,11,31.09,0,13.32.72,34.22.8,42.44H206c.08-8.22.8-29.12.79-42.44.62-9.46,11-22.2,11.23-31.56C218.56,323.57,215.59,328.05,214.64,310.76Z"/>
          </g>
          <polygon class="cls-6" points="187.36 280.84 169.22 307.82 150.16 280.84 150.16 245.14 187.36 245.14 187.36 280.84"/>
          <path class="cls-29" d="M187.28,264.94v-4.63H150.16v8.58c4,10,10.08,17.2,17.92,17.2,8.79,0,15.36-9.06,19.28-20.9A.44.44,0,0,1,187.28,264.94Z"/>
          <path class="cls-40" d="M196.54,228.51c0,20.65-10.57,45.82-29.09,45.82s-29.08-25.17-29.08-45.82,10.56-37.39,29.08-37.39S196.54,207.86,196.54,228.51Z"/>
          <path class="cls-6" d="M191.86,233.53c0,18.39-9.18,40.8-25.27,40.8s-25.27-22.41-25.27-40.8,9.18-33.29,25.27-33.29S191.86,215.15,191.86,233.53Z"/>
          <path class="cls-7" d="M167.32,245.87a14.89,14.89,0,0,1-4.2-.68.55.55,0,0,0-.57.9,7.84,7.84,0,0,0,3.3,2.17,6.27,6.27,0,0,0,1.47.26h0a6.36,6.36,0,0,0,1.48-.26,7.75,7.75,0,0,0,3.29-2.17.55.55,0,0,0-.56-.9A15,15,0,0,1,167.32,245.87Z"/>
          <g>
            <path class="cls-26" d="M155.88,234.54c0,1.51-.83,2.74-1.86,2.74s-1.85-1.23-1.85-2.74.83-2.75,1.85-2.75S155.88,233,155.88,234.54Z"/>
            <path class="cls-26" d="M147.41,229.05a6.31,6.31,0,0,1,2.83-2.74,9.47,9.47,0,0,1,4.14-1.05,10,10,0,0,1,4.25.83,7.42,7.42,0,0,1,3.22,2.54.46.46,0,0,1-.18.66.61.61,0,0,1-.44,0h0a26.53,26.53,0,0,0-3.41-.89,16.93,16.93,0,0,0-3.22-.24,15.64,15.64,0,0,0-3.16.41,20.35,20.35,0,0,0-3.25,1.09h0a.57.57,0,0,1-.72-.25A.44.44,0,0,1,147.41,229.05Z"/>
          </g>
          <g>
            <path class="cls-26" d="M179.2,234.54c0,1.51.83,2.74,1.85,2.74s1.86-1.23,1.86-2.74-.83-2.75-1.86-2.75S179.2,233,179.2,234.54Z"/>
            <path class="cls-26" d="M187.66,229.05a6.26,6.26,0,0,0-2.83-2.74,9.39,9.39,0,0,0-4.13-1.05,10,10,0,0,0-4.25.83,7.36,7.36,0,0,0-3.22,2.54.44.44,0,0,0,.18.66.61.61,0,0,0,.44,0h0a27.41,27.41,0,0,1,3.41-.89,17,17,0,0,1,3.23-.24,15.64,15.64,0,0,1,3.16.41,20.69,20.69,0,0,1,3.25,1.09h0a.57.57,0,0,0,.71-.25A.44.44,0,0,0,187.66,229.05Z"/>
          </g>
          <path class="cls-18" d="M158.24,254.76c-1.2-.16-2,1.48-1.18,2.56a13.87,13.87,0,0,0,20.78,0c.81-1.08,0-2.72-1.17-2.56A72,72,0,0,1,158.24,254.76Z"/>
          <ellipse class="cls-41" cx="150.49" cy="246.24" rx="5.02" ry="3.67"/>
          <path class="cls-41" d="M188.67,246.24c0,2-2.24,3.67-5,3.67s-5-1.64-5-3.67,2.25-3.68,5-3.68S188.67,244.21,188.67,246.24Z"/>
          <path class="cls-42" d="M206.74,381c-13-2.48-9.92-100.14-9.92-100.14l-10.56,51.87a1.82,1.82,0,0,1-1.78,1.46H157.31a1.82,1.82,0,0,1-1.76-1.38l-13.3-52.57s7.44,97-5.58,99.52v43.09h68.52Z"/>
          <path class="cls-29" d="M137,222.1s25.36,5.58,34.87.62c0,0,7.82-2.95,8.77-12.87,0,0,3.28,10.39-.21,12.87s18.39,7.13,14-9c0,0-7.61-10.85-23.78-12.4S141.42,203.81,137,222.1Z"/>
          <g>
            <g>
              <path class="cls-39" d="M198.64,282.91c-2.81-6-9.67-3.66-9.67-3.66l-19.36,29.83a6.58,6.58,0,0,1-.19.83c-.07-.26-.14-.52-.19-.78L148.3,280.38s-7-2-9.46,4.17S159.46,326,159.46,326l20.8-.6S201.44,289,198.64,282.91Z"/>
              <path class="cls-18" d="M187.38,278.4s6.85-2.38,9.66,3.68-17.61,42.23-17.61,42.23-3.06-16.6-9.89-16.55Z"/>
            </g>
            <path class="cls-18" d="M149.85,279.45s-7-2-9.46,4.18,19.84,41.24,19.84,41.24,2.17-16.74,9-17.05Z"/>
          </g>
          <path class="cls-27" d="M137,219.54s25.36,5.58,34.87.62c0,0,7.82-2.95,8.77-12.87,0,0,3.28,10.39-.21,12.87s18.39,7.13,14-9c0,0-7.61-10.85-23.78-12.4S141.42,201.25,137,219.54Z"/>
          <g>
            <path class="cls-26" d="M164.62,201.25c-13,0-20.56,5-24.14,16.14a116.08,116.08,0,0,0,19.29,2c6.17,0,9.27-.94,10.79-1.74l.15-.07.16-.06c.06,0,8.29-4.9,7.84-14.12a34.31,34.31,0,0,0-8.39-1.89C168.31,201.35,166.39,201.25,164.62,201.25Z"/>
            <path class="cls-26" d="M190.15,210.6a31.28,31.28,0,0,0-7-5.15c1.74,4,2.58,10.17.86,14.34a12.52,12.52,0,0,0,2,.16c1.15,0,4-.19,5.3-1.93a4.25,4.25,0,0,0,.78-2.17A6.56,6.56,0,0,0,190.15,210.6Z"/>
          </g>
          <g>
            <g>
              <polygon class="cls-18" points="194.55 213.04 194.55 213.04 193.46 194.04 193.46 194.04 194.55 213.04"/>
              <path class="cls-18" d="M214.49,175.44a19.39,19.39,0,0,0-19.25-19.53c-.44,0-.88,0-1.31,0l-.68.07-.59.07c-.31,0-.62.1-.92.15l-.33.06-1.06.26-.16,0c-.38.1-.76.23-1.14.36h0a19.13,19.13,0,0,0-3.34,1.55h0l-.13.08a19.08,19.08,0,0,0-32.37-2.15,19,19,0,0,0-9.25-2.4,19.55,19.55,0,0,0-2,39l-1.14,19.84c6.94-4.16,16.35-6.72,26.72-6.72a60.22,60.22,0,0,1,9.93.81,48,48,0,0,1,17.11,6.1l-1.09-19h.48C204.57,194,214.49,186.23,214.49,175.44Z"/>
              <path class="cls-43" d="M214.49,175.44a19.39,19.39,0,0,0-19.25-19.53c-.44,0-.88,0-1.31,0l-.68.07-.59.07c-.31,0-.62.1-.92.15l-.33.06-1.06.26-.16,0c-.38.1-.76.23-1.14.36h0a19.13,19.13,0,0,0-3.34,1.55h0l-.13.08a19.31,19.31,0,0,0-13.63-9.85,57.16,57.16,0,0,1,0,57.55c.8,0,1.74.13,2.8.26s1.84.23,2.74.38a48,48,0,0,1,17.11,6.1l-1.09-19h.48C204.57,194,214.49,186.23,214.49,175.44Z"/>
              <polygon class="cls-18" points="194.55 213.11 194.55 213.04 194.55 213.04 194.55 213.11"/>
            </g>
            <path class="cls-44" d="M157.65,189.69A79.15,79.15,0,0,0,141.93,193l-.3,3.35c5.54-2,14.15-3.71,24.89-3.87a74.94,74.94,0,0,1,27.12,4.65V194A82,82,0,0,0,157.65,189.69Z"/>
          </g>
          <path class="cls-44" d="M175,384.7h-5.76a12.93,12.93,0,0,1-12.93-13l.21-17.51h31.63l-.22,17.71A12.92,12.92,0,0,1,175,384.7Z"/>
        </g>
        <g>
          <path class="cls-45" d="M286.33,297.46c-.93.69-1.67-4.8-2.69-3.92-8.15,6.94-18.83,19.6-24.59,41.1-10.15,37.85-12.4,129.21-12.4,129.21h39.93Z"/>
          <path class="cls-46" d="M304.33,300.51c-.93.7-1.67-4.79-2.69-3.92-8.15,6.94-18.83,19.61-24.59,41.11-10.15,37.85-12.4,129.2-12.4,129.2h39.93Z"/>
          <path class="cls-45" d="M410.33,298c1.08.81,3.06-5.1,4.27-4,8.08,7,18.43,19.62,24.08,40.66,10.14,37.85,12.4,129.21,12.4,129.21H411.15Z"/>
          <path class="cls-46" d="M393,298c1.09.81,3.07-5.1,4.28-4,8.08,7,18.43,19.62,24.07,40.66,10.15,37.85,12.4,129.21,12.4,129.21H393.81Z"/>
          <path class="cls-47" d="M414.1,293.07a226.24,226.24,0,0,0-37.39-8,29,29,0,0,1-6.24,9.05c-8.92,8.55-22,8.61-32.33,3.51-5.13-2.53-8.48-7.15-10.89-13.06a252.07,252.07,0,0,0-43.9,8.48l-1.27,171.17H415.49C417.79,411.12,415,355.93,414.1,293.07Z"/>
          <g>
            <path class="cls-48" d="M375.32,294.4a58.28,58.28,0,0,1-48,0v-50h48Z"/>
            <path class="cls-29" d="M325.86,258.65c3.83,17,12.19,31.41,25.35,31.41s21-14.45,24.58-31.41Z"/>
            <path class="cls-49" d="M382,227.46c0,24.16-10.86,53.6-31.67,53.6s-31.66-29.44-31.66-53.6c0-6.48-1.55-14.2,0-19.73,4.21-15.09,16.44-26.33,31.66-26.33,14.71,0,26.23,11.4,30.67,25.66C382.83,213,382,220.39,382,227.46Z"/>
            <path class="cls-50" d="M350.32,280.56c-17.08,0-27.66-25.74-27.66-49.6,0-2.29-.18-4.7-.35-7a47.33,47.33,0,0,1,.2-11.62c5.43-27.41,52.43-19.91,54.66-.56a95.13,95.13,0,0,1,.92,14c0,1.71-.1,3.48-.1,5.23C378,254.82,367.41,280.56,350.32,280.56Z"/>
            <path class="cls-49" d="M321.66,233.06c0,6.08-2.84,11-6.34,11s-6.33-4.92-6.33-11,2.84-11,6.33-11S321.66,227,321.66,233.06Z"/>
            <path class="cls-49" d="M378,233.06c0,6.08,2.84,11,6.33,11s6.34-4.92,6.34-11-2.84-11-6.34-11S378,227,378,233.06Z"/>
            <g>
              <path class="cls-29" d="M362.17,257.6a2.31,2.31,0,0,0-.31-1.6c-2.07-1.27-5.32-3.47-12.6-2.81-2.1.19-6.91,1.61-8.21,2.69-.07.06-.18,0-.27,0a5.36,5.36,0,0,0-.83,2.22c1.05,4.63,7.6,10.21,13.59,8.83,3.75-.86,8.47-4.4,8.78-8.42C362.37,257.77,362.92,257,362.17,257.6Z"/>
              <path class="cls-18" d="M341.22,255.86a1.42,1.42,0,0,0-1.26,2.33c2.18,2.46,6.32,4.28,11.12,4.27s8.93-1.81,11.11-4.27a1.42,1.42,0,0,0-1.26-2.33A90.2,90.2,0,0,1,341.22,255.86Z"/>
            </g>
            <path class="cls-29" d="M350.32,238.91a29.58,29.58,0,0,1-6.4-.76c-.82-.18-1.46.56-.86,1a12.89,12.89,0,0,0,5,2.45,14.11,14.11,0,0,0,2.24.29h0a14.09,14.09,0,0,0,2.25-.29,13,13,0,0,0,5-2.45c.6-.45,0-1.19-.86-1A29.6,29.6,0,0,1,350.32,238.91Z"/>
            <ellipse class="cls-26" cx="335.41" cy="228.9" rx="2.5" ry="3.7"/>
            <ellipse class="cls-26" cx="364.41" cy="228.9" rx="2.5" ry="3.7"/>
            <path class="cls-26" d="M326.93,224a7.12,7.12,0,0,1,2.4-3.53,8.91,8.91,0,0,1,3.95-1.89,9.09,9.09,0,0,1,4.37.19,7.25,7.25,0,0,1,3.61,2.25.54.54,0,0,1-.08.76.56.56,0,0,1-.43.12h0a23.24,23.24,0,0,0-3.55-.38,15.79,15.79,0,0,0-3.25.28,15.27,15.27,0,0,0-3.09,1,20.94,20.94,0,0,0-3.06,1.78h0a.53.53,0,0,1-.75-.14A.52.52,0,0,1,326.93,224Z"/>
            <path class="cls-26" d="M372,224a7.16,7.16,0,0,0-2.39-3.53,9.05,9.05,0,0,0-8.33-1.7A7.25,7.25,0,0,0,357.7,221a.54.54,0,0,0,.08.76.56.56,0,0,0,.43.12h0a23.24,23.24,0,0,1,3.55-.38,15.79,15.79,0,0,1,3.25.28,15.27,15.27,0,0,1,3.09,1,20.94,20.94,0,0,1,3.06,1.78h0a.53.53,0,0,0,.75-.14A.52.52,0,0,0,372,224Z"/>
            <path class="cls-51" d="M318,228.19a1.66,1.66,0,0,0-.9-.29c-1.44,0-2.61,2-2.61,4.54s1.17,4.54,2.61,4.54a2.1,2.1,0,0,0,1.65-1C318.39,233.36,318.06,230.79,318,228.19Z"/>
            <path class="cls-51" d="M381.46,228.19a1.66,1.66,0,0,1,.9-.29c1.44,0,2.61,2,2.61,4.54S383.8,237,382.36,237a2.1,2.1,0,0,1-1.65-1C381,233.36,381.37,230.79,381.46,228.19Z"/>
            <polygon class="cls-52" points="374.4 155.26 326.27 155.26 302.2 176.43 326.27 197.61 374.4 197.61 398.47 176.43 374.4 155.26"/>
            <rect class="cls-47" x="315.67" y="188.09" width="70" height="12"/>
            <path class="cls-52" d="M315.7,200.09c.58,6.38,16,11.5,35,11.5s34.39-5.12,35-11.5Z"/>
            <g class="cls-53">
              <path class="cls-47" d="M398.47,176.43,374.4,155.26H360V192a17.9,17.9,0,0,1-17.23,17.86,97.79,97.79,0,0,1-11.3-.22,89.72,89.72,0,0,0,19.2,2c19,0,34.39-5.12,35-11.5h0v-12h-.45Z"/>
            </g>
            <path class="cls-37" d="M364.39,164.59a35.59,35.59,0,0,1-5.48,13.31,26.68,26.68,0,0,1-8,7.69,27.75,27.75,0,0,1-8.65-8.78,36.21,36.21,0,0,1-4.82-12.22Z"/>
            <path class="cls-26" d="M365.27,252.9a1.73,1.73,0,0,0,1.46-2.66c-2.38-3.71-8.37-6.34-15.4-6.34s-13,2.63-15.4,6.34a1.72,1.72,0,0,0,1.45,2.66Z"/>
          </g>
          <polygon class="cls-37" points="314.24 292.24 291.24 294.57 294.58 284.24 316.91 281.57 314.24 292.24"/>
          <polygon class="cls-37" points="385.58 292.24 408.58 294.57 405.24 284.24 382.91 281.57 385.58 292.24"/>
          <path class="cls-37" d="M389.28,322.77l-3.32-5.7L382,323.12a9,9,0,0,1-7.59,4.14h-2.21a36.17,36.17,0,0,0,4.82,12.21,27.7,27.7,0,0,0,8.65,8.79,26.93,26.93,0,0,0,8-7.69,35.76,35.76,0,0,0,5.48-13.31h-2.09A9,9,0,0,1,389.28,322.77Z"/>
          <polygon class="cls-52" points="351.63 297.34 353.75 297.09 364.95 313.23 353.11 326.9 340.13 313.23 351.63 297.34"/>
          <polygon class="cls-52" points="375.58 428.62 356.09 323.07 351.07 323.07 335.77 428.62 355.57 461.24 355.58 461.57 355.68 461.41 355.77 461.57 355.77 461.26 375.58 428.62"/>
          <polygon class="cls-54" points="326.81 279.32 352.33 297.07 336.45 317.57 324.83 292.57 326.81 279.32"/>
          <polygon class="cls-54" points="376.24 279.32 352.58 297.07 367.3 317.57 378.08 292.57 376.24 279.32"/>
          <path class="cls-54" d="M296.58,331.57h36a0,0,0,0,1,0,0v31.75a7.75,7.75,0,0,1-7.75,7.75h-20.5a7.75,7.75,0,0,1-7.75-7.75V331.57A0,0,0,0,1,296.58,331.57Z"/>
        </g>
        <g>
          <path class="cls-55" d="M309.65,397.23c-.35-5.48,1.22-23,1.36-30.91.18-1.31.37-2.55.57-3.71a179.14,179.14,0,0,0-19.8-3.7,247.41,247.41,0,0,0-31.28-2.25c-1.49,0-2.95,0-4.41,0h-1.48c-1.46,0-2.91,0-4.4,0a247.12,247.12,0,0,0-31.28,2.25,178.68,178.68,0,0,0-19.8,3.7c.2,1.16.39,2.4.57,3.71.14,7.88,1.7,25.43,1.35,30.91-1.09,17,2.4,67.87,3.11,77.17,0,15.72-.25,27.34-.56,30.06H307.11c-.32-2.72-.56-14.34-.56-30.06C307.25,465.1,310.75,414.23,309.65,397.23Z"/>
          <path class="cls-28" d="M289.51,358.13a278.7,278.7,0,0,0-40.1-2.27c-9,.14-17.54.71-25.51,1.56.48,9.45,25.82,32.79,34.85,32.46C266.48,389.61,288.77,368.37,289.51,358.13Z"/>
          <g>
            <path class="cls-18" d="M204.67,504.63,201.43,362s-7.72.91-16,13.36c-6.07,9.11-10.55,19.64-10.55,30.31l-1.19,99Z"/>
            <path class="cls-39" d="M217,504.63,213.93,368s-7.72.91-16,13.36c-6.07,9.11-10.55,19.64-10.55,30.31l-.7,93Z"/>
            <path class="cls-18" d="M256.25,504.45H203.6c.31-2.73.55-14.46.56-30.32-.71-9.38-1.06-18.36-4.16-27.25-6.07-17.41,0-33.45,1.05-50.59.35-5.53-2.6-32-2.8-33.16,7.33-3.48,12.24-5,20.68-5.5Z"/>
            <polygon class="cls-56" points="256.09 504.45 218.93 357.63 212.5 420.63 232 421.13 228 448.63 256.09 504.45"/>
          </g>
          <circle class="cls-57" cx="252.64" cy="437.97" r="6.86"/>
          <g>
            <path class="cls-18" d="M309.26,504.63,312.51,362s7.72.91,16,13.36c6.06,9.11,10.55,19.64,10.55,30.31l1.18,99Z"/>
            <path class="cls-39" d="M296.9,504.63,300,368s7.72.91,16,13.36c6.06,9.11,10.55,19.64,10.55,30.31l.7,93Z"/>
            <path class="cls-18" d="M257.68,504.45h52.66c-.32-2.73-.56-14.46-.56-30.32.7-9.38,1.06-18.36,4.15-27.25,6.07-17.41.05-33.45-1.05-50.59-.35-5.53,2.61-32,2.8-33.16-7.33-3.48-12.23-5-20.67-5.5Z"/>
            <polygon class="cls-56" points="301.44 420.63 295.01 357.63 257.84 504.45 285.94 448.63 281.94 421.13 301.44 420.63"/>
          </g>
          <path class="cls-26" d="M252.5,439.13a1.48,1.48,0,0,1-1.37-.89C228.24,386,229.92,355.32,230,354a1.5,1.5,0,0,1,3,.19c0,.31-1.68,31.32,20.87,82.8a1.5,1.5,0,0,1-.77,2A1.57,1.57,0,0,1,252.5,439.13Z"/>
          <g>
            <path class="cls-26" d="M282.23,394.37l-2.9-.75c6.44-25,5.64-39.25,5.63-39.39l3-.19C288,354.63,288.81,368.85,282.23,394.37Z"/>
            <path class="cls-26" d="M281.57,439.31l-2.48-1.69c8.64-12.66,9.82-31,6.81-37.55a7.6,7.6,0,0,0-5.18-4.32c-7-1.51-10.29,8.64-12.16,16.41a64.16,64.16,0,0,0-.58,25.39l-3,.5a67.19,67.19,0,0,1,.62-26.59c1.38-5.73,5-20.95,15.71-18.64a10.58,10.58,0,0,1,7.28,6C292,406.17,290.93,425.6,281.57,439.31Z"/>
            <circle class="cls-57" cx="266.75" cy="438.72" r="3.08"/>
            <path class="cls-57" d="M282.5,439.88a3.09,3.09,0,1,1-3.08-3.08A3.08,3.08,0,0,1,282.5,439.88Z"/>
          </g>
          <g>
            <rect class="cls-28" x="237.5" y="318.41" width="40" height="47.87"/>
            <path class="cls-29" d="M235,337.38c4.11,14,11.51,25.07,21.64,25.07s17.54-11.09,21.65-25.07Z"/>
            <path class="cls-30" d="M287.37,300.53c0,22.2-11.36,49.27-31.28,49.27s-31.27-27.07-31.27-49.27,11.36-40.2,31.27-40.2S287.37,278.33,287.37,300.53Z"/>
            <path class="cls-10" d="M286,299c-2.12-3.65-24.76-18.54-25.08-21.77.13,1.33-24.34,18.9-34.28,17.75-.06,1.14-.79,6.21-.83,7.36-.8,20.68,10.84,47.49,30,47.49,18.14,0,30.48-22.67,30.64-43.05C286.42,305,286.92,300.6,286,299Z"/>
            <path class="cls-31" d="M256,319.19a15.94,15.94,0,0,1-4.52-.72.59.59,0,0,0-.61,1,8.46,8.46,0,0,0,3.55,2.34,7.25,7.25,0,0,0,1.58.28h0a7.23,7.23,0,0,0,1.59-.28,8.46,8.46,0,0,0,3.55-2.34.59.59,0,0,0-.61-1A16,16,0,0,1,256,319.19Z"/>
            <g>
              <path class="cls-26" d="M243.65,303c0,1.63-.9,2.95-2,2.95s-2-1.32-2-2.95.89-2.95,2-2.95S243.65,301.38,243.65,303Z"/>
              <path class="cls-26" d="M234.54,297.11a6.79,6.79,0,0,1,3.05-2.94A10.08,10.08,0,0,1,242,293a10.8,10.8,0,0,1,4.58.9,8,8,0,0,1,3.46,2.73.49.49,0,0,1-.19.71.62.62,0,0,1-.48,0h0a28.06,28.06,0,0,0-3.67-.95,16.77,16.77,0,0,0-6.87.17,22.8,22.8,0,0,0-3.49,1.18h0a.61.61,0,0,1-.77-.25A.49.49,0,0,1,234.54,297.11Z"/>
            </g>
            <g>
              <path class="cls-26" d="M268.72,303c0,1.63.9,2.95,2,2.95s2-1.32,2-2.95-.89-2.95-2-2.95S268.72,301.38,268.72,303Z"/>
              <path class="cls-26" d="M277.83,297.11a6.79,6.79,0,0,0-3.05-2.94,10,10,0,0,0-4.44-1.14,10.73,10.73,0,0,0-4.57.9,7.87,7.87,0,0,0-3.46,2.73.48.48,0,0,0,.19.71.59.59,0,0,0,.47,0h0a28.18,28.18,0,0,1,3.68-.95,17.85,17.85,0,0,1,3.46-.27,18.1,18.1,0,0,1,3.4.44A22.8,22.8,0,0,1,277,297.8h0a.61.61,0,0,0,.77-.25A.49.49,0,0,0,277.83,297.11Z"/>
            </g>
            <path class="cls-18" d="M246.19,328.76c-1.29-.17-2.14,1.59-1.27,2.75a14.93,14.93,0,0,0,22.35,0c.87-1.16,0-2.92-1.27-2.75A77.27,77.27,0,0,1,246.19,328.76Z"/>
            <path class="cls-27" d="M215.47,354.29a124,124,0,0,0,19.2,5.9c-2-7.42-3.68-14.64-5.06-20.4-2.86-11.91-5-30.44-4.31-42.8,2.76-.24,5.63-1.8,8.37-3.11,8.75-4.19,15.64-8.87,21.34-16.4,3.05-4,12.1-17.89,5.07-21.94-20-11.49-32.34,4.66-38.22,16.61a63.62,63.62,0,0,0-6,21.32l-6.31,58.3Q212.48,353.09,215.47,354.29Z"/>
            <path class="cls-26" d="M215.47,354.29a124.13,124.13,0,0,0,16.61,5.29c-2-7.47-3.73-14.74-5.13-20.57l-.16-.69c-3.11-13-5-31.62-4.36-43.35l.09-1.67,1.66-.14c2-.17,4.38-1.3,6.63-2.4l1.08-.53c9.52-4.56,15.69-9.29,20.64-15.82,1.85-2.45,6.59-8.17,4.52-14.72-1.91-6.06-9.34-8.09-11.07-8.09-12,0-20.4,12.26-24,19.53a65.08,65.08,0,0,0-6,21.25s-5.5,35.5-7,59.25Z"/>
            <path class="cls-26" d="M261,259a.41.41,0,0,1-.16.22c-1.18,8.18,1.61,14.3,7.63,20.13,5.65,5.47,11,10.45,14.72,17.49a30.41,30.41,0,0,1,3.6,16.65c-.42,8-3,15.82-3.56,23.91-.27,3.66-2.31,14.25-4.39,24.46a96.43,96.43,0,0,0,21-5.65c1.74-.7,3.46-1.45,5.14-2.25,0-.06,0-.11,0-.16,1.13-10.34-.7-21.94-1.8-32.19-1.91-17.94-4.75-37.57-14-53.41-3.72-6.41-8.58-11.68-15.77-14-4.83-1.53-9.08-2.23-13.87-.95a15.2,15.2,0,0,0-2.44.95C259.5,254.76,261.87,256.32,261,259Z"/>
            <path class="cls-32" d="M243.25,319.59c0,2.18-2.42,4-5.4,4s-5.4-1.77-5.4-4,2.42-3.95,5.4-3.95S243.25,317.41,243.25,319.59Z"/>
            <path class="cls-32" d="M278.91,319.59c0,2.18-2.42,4-5.4,4s-5.39-1.77-5.39-4,2.41-3.95,5.39-3.95S278.91,317.41,278.91,319.59Z"/>
            <path class="cls-27" d="M241.83,362.47C240,350.21,238,340.3,238,340.3,226.83,328,226,312,226,312l-2.88-.64c-2.08,19.39-.79,34.57,2,46.32C228.77,358.78,238.05,361.68,241.83,362.47Z"/>
            <ellipse class="cls-10" cx="224.9" cy="303.97" rx="4.55" ry="8.06" transform="translate(-14.68 11.43) rotate(-2.82)"/>
            <path class="cls-33" d="M225.89,299.93a1.07,1.07,0,0,0-.25,0c-1.36.06-2.37,2-2.25,4.33s1.22,4,2.5,4.07C225.8,305.51,225.87,302.72,225.89,299.93Z"/>
            <path class="cls-27" d="M290.35,359.43c3.61-13.24,4.83-30,0-50.12l-3.67,2.48s-1.73,15.34-9.56,25a166.78,166.78,0,0,1-1.17,26A142.38,142.38,0,0,0,290.35,359.43Z"/>
            <path class="cls-10" d="M291.35,303.74c.22,4.45-1.64,8.15-4.15,8.28s-4.71-3.38-4.93-7.83,1.63-8.15,4.14-8.27S291.13,299.3,291.35,303.74Z"/>
            <path class="cls-33" d="M285.42,300.2a1,1,0,0,1,.25-.08c1.35-.16,2.66,1.58,2.93,3.9s-.54,4.13-1.8,4.43C286.44,305.68,285.9,303,285.42,300.2Z"/>
            <g>
              <path class="cls-26" d="M273.67,295.83c-2.67-.05-9.58.63-11.37,1.62-2.37,1.3-3.37,1.17-3.37,1.17l-2.57,0h0l-2.56-.05s-1,.09-3.33-1.3c-1.75-1.05-8.63-2-11.3-2-2.16,0-9.69.17-13,.44a1.61,1.61,0,0,0-1.47,1.66l0,1.2a1.68,1.68,0,0,0,.69,1.26,3.65,3.65,0,0,1,1.31,2.61c.28,2.48,1.48,9.76,4.6,11.94,2.82,2,8.17,3.43,14.68.78a13.57,13.57,0,0,0,3.15-2.13,17.72,17.72,0,0,0,4.56-8.18s.33-2.86,2.58-2.82,2.48,2.91,2.48,2.91a17.74,17.74,0,0,0,4.26,8.34,13.76,13.76,0,0,0,3.07,2.25c6.41,2.88,11.81,1.61,14.7-.25,3.19-2.06,4.66-9.3,5-11.76a3.68,3.68,0,0,1,1.24-2.43,2.47,2.47,0,0,0,.92-1.75h0a2.45,2.45,0,0,0-2.2-2.62C282.19,296.28,275.66,295.87,273.67,295.83Zm-22.48,9.06c-.55,4.34-2.12,6-3.65,7.41a12.64,12.64,0,0,1-15.33.63c-3.18-2.14-4.5-10.71-2.05-13.78,2-2.46,6.5-2.33,9.79-2.18,5,.23,7.76.65,9.32,1.74a4.36,4.36,0,0,1,1.82,2.44A15,15,0,0,1,251.19,304.89ZM280,313.81a12.64,12.64,0,0,1-15.29-1.2c-1.48-1.44-3-3.18-3.38-7.54a15.76,15.76,0,0,1,.24-3.73,4.39,4.39,0,0,1,1.91-2.37c1.59-1,4.4-1.35,9.38-1.4,3.29,0,7.83,0,9.7,2.53C284.87,303.27,283.23,311.78,280,313.81Z"/>
              <path class="cls-58" d="M249.27,298.71c-1.56-1.09-4.35-1.51-9.32-1.74-3.29-.15-7.83-.28-9.79,2.18-2.45,3.07-1.13,11.64,2.05,13.78a12.64,12.64,0,0,0,15.33-.63c1.53-1.39,3.1-3.07,3.65-7.41a15,15,0,0,0-.1-3.74A4.36,4.36,0,0,0,249.27,298.71Z"/>
              <path class="cls-59" d="M263.45,299c1.59-1,4.4-1.35,9.38-1.4,3.29,0,7.83,0,9.7,2.53,2.34,3.17.7,11.68-2.56,13.71a12.64,12.64,0,0,1-15.29-1.2c-1.48-1.44-3-3.18-3.38-7.54a15.72,15.72,0,0,1,.24-3.73A4.39,4.39,0,0,1,263.45,299Z"/>
              <g class="cls-23">
                <path class="cls-18" d="M234.05,297.16l-4.78,10.27a10.93,10.93,0,0,0,2.09,4.73l7.1-15.24A22.42,22.42,0,0,0,234.05,297.16Z"/>
                <path class="cls-18" d="M240,297l-.55,0L232,312.79l.19.14a14.09,14.09,0,0,0,1.74,1l7.85-16.85Z"/>
              </g>
              <g class="cls-23">
                <path class="cls-18" d="M266.18,298l-4.47,9.59a9.35,9.35,0,0,0,2.29,4.32l6.67-14.3A32.44,32.44,0,0,0,266.18,298Z"/>
                <path class="cls-18" d="M272.83,297.57l-1.2,0-7,15,0,0a9.9,9.9,0,0,0,1.77,1.37l7.65-16.41Z"/>
              </g>
            </g>
          </g>
        </g>
        <g>
          <g>
            <g>
              <path class="cls-11" d="M135.58,359.49s26.17,8.38,34.73,42.42,6.45,115,6.45,115l-46.17-2.52Z"/>
              <path class="cls-60" d="M118.25,359.49s26.17,8.38,34.73,42.42,6.44,115,6.44,115l-46.17-2.52Z"/>
              <path class="cls-11" d="M7.66,359.49s-26.17,8.38-34.73,42.42-6.45,115-6.45,115l46.17-2.52Z"/>
              <path class="cls-60" d="M25,359.49s-26.17,8.38-34.73,42.42-6.44,115-6.44,115L30,514.35Z"/>
              <path class="cls-61" d="M-1.83,512H141.38c-1-63.25-3.54-107.6-4.07-151.81A301,301,0,0,0,65,348.38c-25.16-1-47,6.09-63.91,13.09C-.09,370.08-1.83,512-1.83,512Z"/>
            </g>
            <g>
              <g>
                <g>
                  <path class="cls-6" d="M39.2,288.54c-.11,5.17-2.49,9.31-5.32,9.25s-5-4.29-4.93-9.45,2.48-9.31,5.31-9.25S39.3,283.38,39.2,288.54Z"/>
                  <path class="cls-7" d="M38,288.69c-.06,2.9-1.39,5.23-3,5.2s-2.83-2.41-2.78-5.32,1.4-5.22,3-5.19S38,285.79,38,288.69Z"/>
                </g>
                <g>
                  <path class="cls-6" d="M112.33,290c-.11,5.17-2.49,9.31-5.32,9.25s-5-4.29-4.94-9.45,2.49-9.31,5.32-9.26S112.43,284.87,112.33,290Z"/>
                  <path class="cls-7" d="M109.05,290.14c-.06,2.9-1.4,5.23-3,5.19s-2.83-2.41-2.77-5.31,1.4-5.23,3-5.19S109.11,287.24,109.05,290.14Z"/>
                </g>
              </g>
              <path class="cls-6" d="M66.49,375.52A28.48,28.48,0,0,0,96.4,351.19a255.23,255.23,0,0,0-34.61-3.57c-7.83-.35-14.5,1.55-21.46,1.85C40.21,364.11,51.23,374.61,66.49,375.52Z"/>
              <rect class="cls-6" x="44.75" y="307.94" width="49.22" height="51.27" transform="translate(20.14 -3.56) rotate(3.44)"/>
              <path class="cls-12" d="M105,292.65c-1.48,24.72-16.12,54.09-37.41,52.81s-33.67-32.27-32.19-57,16.88-43.91,38.18-42.63S106.52,267.93,105,292.65Z"/>
              <path class="cls-6" d="M101,288.88c-7.15-2.54-8.87-17.08-8.55-24.42-5.69,4.16-10.65,5.6-17.79,5.63-9.2,0-16.9-2.46-25.39-6.18,4.16,13.54-4.88,23.25-7.79,23.29-1.08,17.95,4.94,44.27,18.88,51.47a19.08,19.08,0,0,0,7.59,2.12c8.14.48,16-4.62,22.2-14.36C95.71,317.59,100.28,300.18,101,288.88Z"/>
              <path class="cls-29" d="M39.12,318.24c3.43,20,11.69,45.39,28.27,46.39s27.85-20.2,30.41-42.87Z"/>
              <path class="cls-11" d="M35,296.42l6.74.7L42.3,286c5.17-9.19,4.18-27.41,4.18-27.41s29.24,9.31,49,.22c0,0,.68,21.48,3.85,28l.17.34L99,300.44l5.38.19,1.29-21.29s4.46-26.51-16.1-37.68c-6.19-3.36-14.64-2-21.55-2.06-8.69-.09-15.36,2.9-21.62,6.35-4.89,2.69-7.9,5.33-9.34,11.31-1.4,5.81-.75,13.61-1.37,25.1Z"/>
              <path class="cls-11" d="M42.31,306.53c.34,3.44,2.44,6.9,5.68,8.09,2.82,1,5.88-.33,8.7-1.36,4.36-1.59,8.53-2.78,13.87-.62,2.73-1.8,8.42-.89,12.49.57,2.71,1,7.07,3.59,9.69,2.39a9.48,9.48,0,0,0,4.92-7c.47-2.9,1-5.46,1.46-9.41,2.08.25,3.16.07,5.25.31-.56,19.22-4.3,46.8-26.51,52.45-16.77,4.28-34.44-8.19-39.12-24.2-2.61-8.92-4.71-22.45-3.8-31.7.25-2.54,3.7-2.6,6.61-.45C41.9,298.42,42.05,303.92,42.31,306.53Z"/>
              <path class="cls-13" d="M51.31,318.37a12.13,12.13,0,0,0,6.22,2.21c4,.49,9,.46,11.81-2.8a.52.52,0,0,1,.62-.1c5.13,3.07,15.71,5.49,20,.17A23,23,0,0,1,84.33,316c-.72-.32-1.41-.62-2-.82-4.38-1.57-9-1.91-10.66-.79l-.9.6-1-.41c-4.67-1.88-8.24-.87-12.41.65l-.84.31A17.49,17.49,0,0,1,49.77,317C50.27,317.49,50.78,318,51.31,318.37Z"/>
              <g>
                <path class="cls-7" d="M70.32,306.12a17.32,17.32,0,0,1-4.78-1.07.63.63,0,0,0-.72,1,9,9,0,0,0,3.65,2.73,7.85,7.85,0,0,0,1.67.4h0a7.78,7.78,0,0,0,1.71-.2,9,9,0,0,0,4-2.27.63.63,0,0,0-.59-1.07A17.21,17.21,0,0,1,70.32,306.12Z"/>
                <path class="cls-6" d="M70.21,320.71a57.76,57.76,0,0,1-10.79,3.16,14.27,14.27,0,0,0,10.2,5.39,14.42,14.42,0,0,0,11.45-4.79,1.58,1.58,0,0,0,.12-.15C79.6,324.35,72.74,322.24,70.21,320.71Z"/>
                <path class="cls-11" d="M58.58,290.73c-.1,1.74-1.14,3.1-2.32,3s-2-1.54-1.94-3.29,1.14-3.1,2.32-3S58.69,289,58.58,290.73Z"/>
                <path class="cls-11" d="M88.26,292.51c-.1,1.75-1.14,3.1-2.32,3s-2-1.54-1.94-3.28,1.14-3.1,2.32-3S88.37,290.77,88.26,292.51Z"/>
                <path class="cls-11" d="M48.08,285a7.22,7.22,0,0,1,2.66-3.47,9.34,9.34,0,0,1,4.17-1.69,9.22,9.22,0,0,1,4.46.46,7.4,7.4,0,0,1,3.55,2.53.55.55,0,0,1-.12.77.52.52,0,0,1-.45.09h0a22.78,22.78,0,0,0-3.6-.61,14.71,14.71,0,0,0-6.57.93,21.84,21.84,0,0,0-3.24,1.63h0a.55.55,0,0,1-.76-.19A.54.54,0,0,1,48.08,285Z"/>
                <path class="cls-11" d="M94.24,287.8A7.31,7.31,0,0,0,92,284a9.28,9.28,0,0,0-8.41-2.26,7.42,7.42,0,0,0-3.83,2.09.55.55,0,0,0,0,.78.54.54,0,0,0,.44.15h0a24.42,24.42,0,0,1,3.65-.18,16,16,0,0,1,3.3.49,15.35,15.35,0,0,1,3.1,1.22,21.45,21.45,0,0,1,3,2h0a.56.56,0,0,0,.78-.09A.59.59,0,0,0,94.24,287.8Z"/>
              </g>
              <path class="cls-11" d="M103.43,238.45c-1.79,1.48-4.26,5.19-6.9,5,.26-6.18-3.43-10.68-7-15.33-5.59,6.21-10.76,8.32-21.38,9.3-4.41.41-11.55-.7-15.58,1.57-2.12,1.18-6.45,5.31-6.16,8.25l-.92,3.4c-2.12,2.48-1.13,2.59-.28,5.63,1.56,5.61,28.22,8.72,34.88,7.89,6-.75,15.69-3,19-9C101.55,250.68,104.73,243.66,103.43,238.45Z"/>
              <path class="cls-13" d="M65.44,241.67c-3.68,1.22-7.13,4.79-5,8.79,2.87,5.31,10.29,7.48,15.79,7.57,19.21.32,24.34-10.16,24.66-13.69-3.14,3.38-8.22,3.92-8.22,3.92s-.75-11.38-3.63-15.14c-1.37,2.66-7.79,5.64-8.69,6a48.79,48.79,0,0,1-12.85,2.17A8.34,8.34,0,0,0,65.44,241.67Z"/>
            </g>
          </g>
          <g>
            <path class="cls-62" d="M127.71,514.26H7.12l7.07-103.88a269.74,269.74,0,0,1,106.36,0C123.31,446,127.71,479.63,127.71,514.26Z"/>
            <g>
              <polygon class="cls-44" points="36.18 421.11 21.35 421.11 21.68 352.64 36.51 350.76 36.18 421.11"/>
              <path class="cls-63" d="M31.83,412.8a3.2,3.2,0,1,1-3.19-3.2A3.19,3.19,0,0,1,31.83,412.8Z"/>
            </g>
            <g>
              <polygon class="cls-44" points="98.05 421.11 112.88 421.11 113.67 353.8 99.05 351.1 98.05 421.11"/>
              <path class="cls-63" d="M102.4,412.8a3.2,3.2,0,1,0,3.2-3.2A3.19,3.19,0,0,0,102.4,412.8Z"/>
            </g>
            <path class="cls-57" d="M57.46,410.17a4.14,4.14,0,0,1-8.26.7l-.67-4.4a8.22,8.22,0,0,0,1.36,14.3L51.2,435h0l.82,9.73a7.51,7.51,0,0,0-1.45,1.42,8.52,8.52,0,0,0,2.74,13l-.38-4.43a4.15,4.15,0,0,1,8.27-.7l.38,4.43A8.5,8.5,0,0,0,62.19,445c-.64-.55-1.25-.79-1.73-1.2l-.26,0-.64-8.5h.06l-1.31-15.13c.41-.48,1-.83,1.51-1.47a8.51,8.51,0,0,0-2.73-13Z"/>
            <g>
              <polygon class="cls-57" points="84.2 399.63 79.4 446.61 81.53 446.83 86.33 399.85 88.24 398 87.48 390.83 86.19 390.7 84.89 390.57 82.7 397.43 84.2 399.63"/>
              <path class="cls-64" d="M86.33,430.2c.07-.7.06-.61.09-.89.11-1.09,2-1.37,2.15-2.66s0-1.78-1.58-1.94l-4.12-.42-4.11-.42c-1.58-.16-1.81.28-1.94,1.57s1.68,2,1.57,3.05c0,.28,0,.18-.1.89-.1,1-2,1.3-2.12,2.36-.13,1.34-2,20-2.37,23.23s1.42,4.17,5.47,4.59,6-.14,6.29-3.39,2.23-21.89,2.37-23.23C88,431.88,86.23,431.17,86.33,430.2Z"/>
            </g>
            <g>
              <path class="cls-44" d="M98.66,487.54h-62l2.84-47.72c8.74-.8,18.35-1.3,28.71-1.28,10,0,19.2.51,27.65,1.28Q97.25,463.69,98.66,487.54Z"/>
              <path class="cls-65" d="M39.81,484.54l2.49-42c8.41-.69,16.92-1,25.34-1h.53c8.24,0,16.57.36,24.81,1l2.49,42Z"/>
            </g>
          </g>
        </g>
        <g>
          <g>
            <path class="cls-66" d="M488,371.47s23.53-.34,33.55,37.8c8.85,33.66,11.79,114.14,11.79,114.14H490.45Z"/>
            <path class="cls-67" d="M382,368.14s-23.53-.34-33.55,37.8c-8.85,33.65-11.79,114.14-11.79,114.14h42.88Z"/>
            <path class="cls-66" d="M398,370.14s-23.53-.34-33.55,37.8c-8.85,33.65-11.79,114.14-11.79,114.14h42.88Z"/>
            <path class="cls-68" d="M518.23,520.87H364l10.19-151.71c16.79-3.92,37.17-9.39,62.27-9.77,29.3-.45,54.19,5.79,72.73,10.11C512.69,422.24,518.23,469.64,518.23,520.87Z"/>
            <path class="cls-28" d="M444.25,386.88c15.05,0,27.36-11.29,28.42-25.59a250.12,250.12,0,0,0-34.76-1.91c-7.82.12-15.21.59-22.12,1.31C416.55,375.28,429,386.88,444.25,386.88Z"/>
            <rect class="cls-28" x="420.05" y="319.38" width="49.09" height="51.14"/>
            <path class="cls-69" d="M477.67,302.06c0,24.7-12.82,54.82-34.09,54.82s-35.46-30.12-35.46-54.82,14.18-44.73,35.46-44.73S477.67,277.36,477.67,302.06Z"/>
            <path class="cls-70" d="M442.08,284.48a138.31,138.31,0,0,1-17.47-1.59c-2.89-.46-7.18-1-10.1-2.82a54.54,54.54,0,0,0-4.34,22c0,24.91,14.29,52.77,33.41,52.77,8.89,0,17.14-6.07,23.23-17.09,5.52-10,8.81-23.33,8.81-35.68,0-9.52-1.89-17.95-5.27-24.76C462.35,283.07,452.26,284.79,442.08,284.48Z"/>
            <path class="cls-29" d="M413.58,331.48c4.61,19.75,13.43,38,30,38s24.38-18.26,28.63-38Z"/>
            <path class="cls-10" d="M484.06,305.66c0,6.21-2.08,11.25-4.65,11.25s-4.64-5-4.64-11.25,2.08-11.25,4.64-11.25S484.06,299.44,484.06,305.66Z"/>
            <path class="cls-31" d="M478.39,310.81c-.79-.13-2.6-2.29-2.6-5.94s1.83-5.83,2.62-5.95c.75.12,2.58,2.27,2.58,5.95S479.18,310.68,478.39,310.81Z"/>
            <ellipse class="cls-10" cx="406.72" cy="305.66" rx="4.99" ry="11.25"/>
            <path class="cls-31" d="M406.93,310.56c-.7,0-2.73-2-2.73-5.69s2-5.69,2.73-5.69,2.73,2,2.73,5.69S407.63,310.56,406.93,310.56Z"/>
            <path class="cls-26" d="M408.15,310l6.75.3-.09-11.13c2.14-6.83,4.25-13.82,2.26-20.7l-.79-2.75a83.14,83.14,0,0,0,50.79.15,35.9,35.9,0,0,0,.71,10.68,36.27,36.27,0,0,0,3.82,10l.19.33.38,13.29,5.37-.12L479,287s1.37-24.88-19.77-34.77c0,0-36.14-14.32-48.75,14.66-1.28,2.93-2.3,5.26-3.13,7.1-1.42,6.35-2.48,17.18.06,21.19Z"/>
            <path class="cls-26" d="M416.05,319.63c.54,3.41,2.84,6.73,6.14,7.72,2.87.86,5.83-.68,8.58-1.87a15.61,15.61,0,0,1,14.31.73c2.13-3.07,7.81-3.57,11.93-2.36,2.76.8,7.26,3.15,9.79,1.79a9.39,9.39,0,0,0,4.48-7.28c.29-2.92.63-5.5.89-9.46,2.09.12,3.15-.13,5.24,0,.5,16-5.62,32.45-17.38,43.33-3.54,3.28-8.57,5-14.45,5.37-4.81.32-22.32-.3-30.3-17.94-3.82-8.45-7.17-20.56-6.82-29.83.1-2.54,3.15-3,6.18-1.06C415.15,311.58,415.64,317.05,416.05,319.63Z"/>
            <g>
              <path class="cls-31" d="M443.92,317.55a17,17,0,0,1-4.83-.78.63.63,0,0,0-.65,1,9,9,0,0,0,3.78,2.5,7.64,7.64,0,0,0,1.7.3h0a7.55,7.55,0,0,0,1.69-.3,9,9,0,0,0,3.79-2.5.63.63,0,0,0-.65-1A17.08,17.08,0,0,1,443.92,317.55Z"/>
              <path class="cls-70" d="M444.89,332.49c-2.59,2.53-6.19,3.32-9.91,3.39a13.92,13.92,0,0,0,20.41-.17A13.22,13.22,0,0,1,444.89,332.49Z"/>
              <path class="cls-26" d="M431.3,302.93c0,1.74-.95,3.15-2.13,3.15s-2.13-1.41-2.13-3.15,1-3.15,2.13-3.15S431.3,301.19,431.3,302.93Z"/>
              <path class="cls-26" d="M461,302.93c0,1.74-.95,3.15-2.13,3.15s-2.13-1.41-2.13-3.15,1-3.15,2.13-3.15S461,301.19,461,302.93Z"/>
              <path class="cls-26" d="M420.5,297.88a7.27,7.27,0,0,1,2.45-3.61,9.29,9.29,0,0,1,8.52-1.74,7.45,7.45,0,0,1,3.69,2.3.56.56,0,0,1-.08.78.52.52,0,0,1-.44.12h0a24.26,24.26,0,0,0-3.62-.4,14.63,14.63,0,0,0-6.48,1.32,22,22,0,0,0-3.14,1.82h0a.55.55,0,0,1-.77-.14A.58.58,0,0,1,420.5,297.88Z"/>
              <path class="cls-26" d="M466.63,297.88a7.27,7.27,0,0,0-2.45-3.61,9.08,9.08,0,0,0-4.05-1.93,9.25,9.25,0,0,0-4.47.19,7.38,7.38,0,0,0-3.68,2.3.55.55,0,0,0,.07.78.53.53,0,0,0,.45.12h0a24.26,24.26,0,0,1,3.62-.4,14.64,14.64,0,0,1,6.49,1.32,22.46,22.46,0,0,1,3.13,1.82h0a.55.55,0,0,0,.77-.14A.58.58,0,0,0,466.63,297.88Z"/>
            </g>
            <g>
              <path class="cls-71" d="M422.65,314.35c0,.33-.57.6-1.27.6s-1.28-.27-1.28-.6.57-.6,1.28-.6S422.65,314,422.65,314.35Z"/>
              <path class="cls-71" d="M428.11,312.9c0,.33-.57.6-1.28.6s-1.28-.27-1.28-.6.57-.6,1.28-.6S428.11,312.57,428.11,312.9Z"/>
              <ellipse class="cls-71" cx="426.15" cy="317.67" rx="1.28" ry="0.6"/>
            </g>
            <g>
              <path class="cls-71" d="M461.65,314.35c0,.33-.58.6-1.28.6s-1.28-.27-1.28-.6.57-.6,1.28-.6S461.65,314,461.65,314.35Z"/>
              <path class="cls-71" d="M467.1,312.9c0,.33-.57.6-1.28.6s-1.28-.27-1.28-.6.58-.6,1.28-.6S467.1,312.57,467.1,312.9Z"/>
              <ellipse class="cls-71" cx="465.14" cy="317.67" rx="1.28" ry="0.6"/>
            </g>
            <g>
              <path class="cls-72" d="M482.73,253l.74,13.44H402l.74-13.44c1.06-19,16.58-33.87,34.55-33.87h10.87C466.15,219.14,481.67,234,482.73,253Z"/>
              <path class="cls-73" d="M482.73,253l.74,13.44H402l.74-13.44c1.06-19,16.58-33.87,34.55-33.87h10.87C466.15,219.14,481.67,234,482.73,253Z"/>
              <path class="cls-74" d="M457.3,266.91H428.19l6.35-47.3a4.54,4.54,0,0,1,2.88-3.66,15.13,15.13,0,0,1,10.64,0,4.53,4.53,0,0,1,2.89,3.66Q454.13,243.26,457.3,266.91Z"/>
              <path class="cls-75" d="M490.46,272.52H395l.28-4.42a3.89,3.89,0,0,1,3.89-3.52h87.09a3.89,3.89,0,0,1,3.89,3.52Z"/>
            </g>
          </g>
          <g>
            <path class="cls-76" d="M472.83,520.87h45.4c0-51.23-5.54-98.63-9.06-151.37-10.27-2.39-22.5-5.37-36.34-7.48Z"/>
            <path class="cls-18" d="M513.14,421.47c-.3-3.66-.59-7.32-.89-11H472.83v11Z"/>
            <path class="cls-18" d="M472.83,453h42.7c-.25-3.67-.52-7.33-.79-11H472.83Z"/>
          </g>
          <g>
            <path class="cls-77" d="M408.5,361.88c-12.89,2-24.26,4.93-34.33,7.28L364,520.87H408.5Z"/>
            <g>
              <polygon class="cls-18" points="408.5 410.47 371.39 410.47 370.66 421.47 408.5 421.47 408.5 410.47"/>
              <polygon class="cls-18" points="369.28 441.97 368.54 452.97 408.5 452.97 408.5 441.97 369.28 441.97"/>
            </g>
          </g>
        </g>
        <g>
          <polygon class="cls-18" points="120.3 91.27 122.6 95.47 126.8 97.77 122.6 100.06 120.3 104.27 118 100.06 113.8 97.77 118 95.47 120.3 91.27"/>
          <polygon class="cls-18" points="257.37 224.93 259.67 229.13 263.87 231.43 259.67 233.73 257.37 237.93 255.07 233.73 250.87 231.43 255.07 229.13 257.37 224.93"/>
          <polygon class="cls-18" points="364.3 126.27 366.6 130.47 370.8 132.76 366.6 135.06 364.3 139.26 362 135.06 357.8 132.76 362 130.47 364.3 126.27"/>
          <polygon class="cls-18" points="478.7 23.6 481 27.8 485.2 30.1 481 32.4 478.7 36.6 476.4 32.4 472.2 30.1 476.4 27.8 478.7 23.6"/>
          <polygon class="cls-18" points="25.17 37.8 27.46 42 31.67 44.3 27.46 46.6 25.17 50.8 22.87 46.6 18.67 44.3 22.87 42 25.17 37.8"/>
        </g>
      </g>
    </g>
  </g>
</svg>
