<svg width="280" height="72" viewBox="0 0 280 72" fill="none" xmlns="http://www.w3.org/2000/svg">
<path d="M38.184 22.88V29.696H49.176V36.032H38.184V43.424H50.616V50H29.976V16.304H50.616V22.88H38.184ZM71.7848 50L66.6488 42.56L62.3288 50H53.4488L62.2808 36.32L53.2088 23.216H62.4248L67.5608 30.608L71.8808 23.216H80.7608L71.7848 36.704L81.0008 50H71.7848ZM82.5315 36.56C82.5315 33.808 83.0435 31.392 84.0675 29.312C85.1235 27.232 86.5475 25.632 88.3395 24.512C90.1315 23.392 92.1315 22.832 94.3395 22.832C96.2275 22.832 97.8755 23.216 99.2835 23.984C100.724 24.752 101.828 25.76 102.596 27.008V23.216H110.804V50H102.596V46.208C101.796 47.456 100.676 48.464 99.2355 49.232C97.8275 50 96.1795 50.384 94.2915 50.384C92.1155 50.384 90.1315 49.824 88.3395 48.704C86.5475 47.552 85.1235 45.936 84.0675 43.856C83.0435 41.744 82.5315 39.312 82.5315 36.56ZM102.596 36.608C102.596 34.56 102.02 32.944 100.868 31.76C99.7475 30.576 98.3715 29.984 96.7395 29.984C95.1075 29.984 93.7155 30.576 92.5635 31.76C91.4435 32.912 90.8835 34.512 90.8835 36.56C90.8835 38.608 91.4435 40.24 92.5635 41.456C93.7155 42.64 95.1075 43.232 96.7395 43.232C98.3715 43.232 99.7475 42.64 100.868 41.456C102.02 40.272 102.596 38.656 102.596 36.608ZM115.11 36.608C115.11 33.824 115.67 31.392 116.79 29.312C117.942 27.232 119.526 25.632 121.542 24.512C123.59 23.392 125.926 22.832 128.55 22.832C131.91 22.832 134.71 23.712 136.95 25.472C139.222 27.232 140.71 29.712 141.414 32.912H132.678C131.942 30.864 130.518 29.84 128.406 29.84C126.902 29.84 125.702 30.432 124.806 31.616C123.91 32.768 123.462 34.432 123.462 36.608C123.462 38.784 123.91 40.464 124.806 41.648C125.702 42.8 126.902 43.376 128.406 43.376C130.518 43.376 131.942 42.352 132.678 40.304H141.414C140.71 43.44 139.222 45.904 136.95 47.696C134.678 49.488 131.878 50.384 128.55 50.384C125.926 50.384 123.59 49.824 121.542 48.704C119.526 47.584 117.942 45.984 116.79 43.904C115.67 41.824 115.11 39.392 115.11 36.608ZM160.732 43.04V50H156.556C153.58 50 151.26 49.28 149.596 47.84C147.932 46.368 147.1 43.984 147.1 40.688V30.032H143.836V23.216H147.1V16.688H155.308V23.216H160.684V30.032H155.308V40.784C155.308 41.584 155.5 42.16 155.884 42.512C156.268 42.864 156.908 43.04 157.804 43.04H160.732Z" fill="white"/>
<path d="M186.424 16.304V39.248C186.424 42.8 185.416 45.536 183.4 47.456C181.416 49.376 178.728 50.336 175.336 50.336C171.784 50.336 168.936 49.328 166.792 47.312C164.648 45.296 163.576 42.432 163.576 38.72H171.736C171.736 40.128 172.024 41.2 172.6 41.936C173.176 42.64 174.008 42.992 175.096 42.992C176.088 42.992 176.856 42.672 177.4 42.032C177.944 41.392 178.216 40.464 178.216 39.248V16.304H186.424ZM205.246 50.384C202.622 50.384 200.254 49.824 198.142 48.704C196.062 47.584 194.414 45.984 193.198 43.904C192.014 41.824 191.422 39.392 191.422 36.608C191.422 33.856 192.03 31.44 193.246 29.36C194.462 27.248 196.126 25.632 198.238 24.512C200.35 23.392 202.718 22.832 205.342 22.832C207.966 22.832 210.334 23.392 212.446 24.512C214.558 25.632 216.222 27.248 217.438 29.36C218.654 31.44 219.262 33.856 219.262 36.608C219.262 39.36 218.638 41.792 217.39 43.904C216.174 45.984 214.494 47.584 212.35 48.704C210.238 49.824 207.87 50.384 205.246 50.384ZM205.246 43.28C206.814 43.28 208.142 42.704 209.23 41.552C210.35 40.4 210.91 38.752 210.91 36.608C210.91 34.464 210.366 32.816 209.278 31.664C208.222 30.512 206.91 29.936 205.342 29.936C203.742 29.936 202.414 30.512 201.358 31.664C200.302 32.784 199.774 34.432 199.774 36.608C199.774 38.752 200.286 40.4 201.31 41.552C202.366 42.704 203.678 43.28 205.246 43.28ZM231.825 27.008C232.593 25.76 233.697 24.752 235.137 23.984C236.577 23.216 238.225 22.832 240.081 22.832C242.289 22.832 244.289 23.392 246.081 24.512C247.873 25.632 249.281 27.232 250.305 29.312C251.361 31.392 251.889 33.808 251.889 36.56C251.889 39.312 251.361 41.744 250.305 43.856C249.281 45.936 247.873 47.552 246.081 48.704C244.289 49.824 242.289 50.384 240.081 50.384C238.193 50.384 236.545 50.016 235.137 49.28C233.729 48.512 232.625 47.504 231.825 46.256V50H223.617V14.48H231.825V27.008ZM243.537 36.56C243.537 34.512 242.961 32.912 241.809 31.76C240.689 30.576 239.297 29.984 237.633 29.984C236.001 29.984 234.609 30.576 233.457 31.76C232.337 32.944 231.777 34.56 231.777 36.608C231.777 38.656 232.337 40.272 233.457 41.456C234.609 42.64 236.001 43.232 237.633 43.232C239.265 43.232 240.657 42.64 241.809 41.456C242.961 40.24 243.537 38.608 243.537 36.56ZM267.091 50.384C264.755 50.384 262.675 49.984 260.851 49.184C259.027 48.384 257.587 47.296 256.531 45.92C255.475 44.512 254.883 42.944 254.755 41.216H262.867C262.963 42.144 263.395 42.896 264.163 43.472C264.931 44.048 265.875 44.336 266.995 44.336C268.019 44.336 268.803 44.144 269.347 43.76C269.923 43.344 270.211 42.816 270.211 42.176C270.211 41.408 269.811 40.848 269.011 40.496C268.211 40.112 266.915 39.696 265.123 39.248C263.203 38.8 261.603 38.336 260.323 37.856C259.043 37.344 257.939 36.56 257.011 35.504C256.083 34.416 255.619 32.96 255.619 31.136C255.619 29.6 256.035 28.208 256.867 26.96C257.731 25.68 258.979 24.672 260.611 23.936C262.275 23.2 264.243 22.832 266.515 22.832C269.875 22.832 272.515 23.664 274.435 25.328C276.387 26.992 277.507 29.2 277.795 31.952H270.211C270.083 31.024 269.667 30.288 268.963 29.744C268.291 29.2 267.395 28.928 266.275 28.928C265.315 28.928 264.579 29.12 264.067 29.504C263.555 29.856 263.299 30.352 263.299 30.992C263.299 31.76 263.699 32.336 264.499 32.72C265.331 33.104 266.611 33.488 268.339 33.872C270.323 34.384 271.939 34.896 273.187 35.408C274.435 35.888 275.523 36.688 276.451 37.808C277.411 38.896 277.907 40.368 277.939 42.224C277.939 43.792 277.491 45.2 276.595 46.448C275.731 47.664 274.467 48.624 272.803 49.328C271.171 50.032 269.267 50.384 267.091 50.384Z" fill="#603A02"/>
<path d="M3.60532 49.8533C3.55844 50.2752 3.43539 50.6561 3.23618 50.9959C2.89633 51.5701 2.4686 51.8572 1.95297 51.8572C1.82407 51.8572 1.70102 51.8338 1.58383 51.7869C0.997894 51.5408 0.704926 50.9197 0.704926 49.9236L2.19907 38.8318C2.2225 38.6209 2.25766 38.4217 2.30453 38.2342C2.50375 37.2615 2.95493 36.7752 3.65805 36.7752C3.81039 36.7752 3.95688 36.7928 4.0975 36.8279C4.60141 36.9686 4.85336 37.4666 4.85336 38.3221C4.85336 38.6619 4.83578 39.0486 4.80063 39.4822C4.81235 39.4588 4.82993 39.4295 4.85336 39.3943C5.73227 37.824 6.98032 37.0389 8.5975 37.0389C9.07797 37.0389 9.57602 37.1678 10.0916 37.4256C10.8885 37.8358 11.3924 38.3865 11.6034 39.0779C12.4471 37.8123 13.6131 37.1736 15.1014 37.1619C15.6756 37.1619 16.2088 37.3377 16.701 37.6893C17.4159 38.2049 17.7733 38.8963 17.7733 39.7635C17.7733 40.326 17.7674 41.1873 17.7557 42.3475C17.7323 43.6248 17.7205 44.6033 17.7205 45.283C17.7205 45.8104 17.7323 46.2674 17.7557 46.6541C17.8963 48.494 18.4588 49.4139 19.4432 49.4139C19.5604 49.4139 19.6834 49.4022 19.8123 49.3787C20.1522 49.2967 20.6502 49.0213 21.3065 48.5525C21.951 48.0838 22.4666 47.8494 22.8534 47.8494C23.0057 47.8494 23.1522 47.8963 23.2928 47.99C23.6561 48.2127 23.8377 48.5584 23.8377 49.0272C23.8377 49.0623 23.8319 49.1092 23.8202 49.1678C23.7381 49.7303 23.2518 50.3104 22.3612 50.908C21.2713 51.6463 20.1873 52.0154 19.1092 52.0154C18.2303 52.0154 17.4862 51.7752 16.8768 51.2947C15.6229 50.2869 14.9959 48.0779 14.9959 44.6678C14.9959 44.4686 15.0018 44.1463 15.0135 43.701C15.037 43.0565 15.0487 42.4998 15.0487 42.0311C15.0487 40.8006 14.908 40.1736 14.6268 40.1502C14.3924 40.1502 14.117 40.3318 13.8006 40.6951C12.9803 41.6443 12.1014 43.3963 11.1639 45.951L10.8651 48.9568C10.7948 49.7303 10.6952 50.3221 10.5663 50.7322C10.3202 51.5291 9.85141 51.9275 9.16 51.9275C8.9725 51.9275 8.79672 51.8865 8.63266 51.8045C8.12875 51.5701 7.8768 51.0838 7.8768 50.3455C7.8768 49.6307 8.04086 48.3475 8.36899 46.4959C8.8143 43.9529 9.03696 42.2127 9.03696 41.2752C9.03696 41.0291 9.01352 40.8123 8.96664 40.6248C8.87289 40.2264 8.6268 40.0272 8.22836 40.0272C8.01743 40.0389 7.78305 40.1619 7.52524 40.3963C6.65805 41.2166 5.69711 43.1268 4.64243 46.1268C3.95102 48.0838 3.60532 49.326 3.60532 49.8533ZM23.908 36.9158C24.658 36.9276 25.0448 37.3846 25.0682 38.2869C25.0682 38.4627 25.0213 38.8436 24.9276 39.4295C24.5291 42.0428 24.3299 43.9354 24.3299 45.1072C24.3299 47.6385 24.9745 48.9158 26.2635 48.9393C26.5448 48.9158 26.8143 48.8221 27.0721 48.658C28.162 47.9549 28.9823 45.7049 29.533 41.908C29.6737 40.9236 29.7733 39.8279 29.8319 38.6209C29.8436 38.5037 29.8495 38.4334 29.8495 38.41C29.8612 38.3279 29.8729 38.2518 29.8846 38.1815C30.0252 37.3963 30.4647 37.0037 31.203 37.0037C31.3436 37.0037 31.4842 37.0272 31.6248 37.074C32.1522 37.2615 32.4159 37.7654 32.4159 38.5858C32.4159 38.6795 32.41 38.8084 32.3983 38.9725C32.3983 39.0779 32.3983 39.1483 32.3983 39.1834L30.6229 52.1385C33.4471 50.0174 35.1112 48.74 35.6151 48.3065C36.0721 47.9315 36.5233 47.744 36.9686 47.744C37.1209 47.744 37.2791 47.7908 37.4432 47.8846C37.783 48.1072 37.953 48.4061 37.953 48.7811C37.9413 49.3318 37.619 49.8768 36.9862 50.4158C35.8026 51.4236 33.5174 53.2225 30.1307 55.8123L29.3397 61.5955C29.1405 62.9783 28.5077 64.0272 27.4413 64.742C26.6913 65.2342 25.9237 65.4803 25.1385 65.4803C24.0604 65.4803 23.1053 65.076 22.2733 64.2674C21.4647 63.4588 21.0604 62.5506 21.0604 61.5428C21.0604 60.4764 21.3241 59.6092 21.8514 58.9412C22.1209 58.6014 22.6659 58.1268 23.4862 57.5174C23.5916 57.4002 24.9979 56.3397 27.7049 54.3358C27.8573 53.2811 28.0155 52.2557 28.1795 51.2596C27.4998 51.576 26.7147 51.7342 25.8241 51.7342C25.4022 51.7342 25.0038 51.6815 24.6288 51.576C22.578 50.9549 21.5526 48.699 21.5526 44.8084C21.5643 42.8748 21.7694 40.994 22.1678 39.1658C22.4959 37.7479 23.076 36.9979 23.908 36.9158ZM26.8436 60.2068C26.8436 60.2068 26.9432 59.4861 27.1424 58.0447C25.9354 58.9588 25.285 59.4568 25.1913 59.5389C24.3475 60.1951 23.9198 60.7928 23.908 61.3318C23.908 61.5311 23.9432 61.7244 24.0135 61.9119C24.2127 62.4275 24.5877 62.6854 25.1385 62.6854C25.3495 62.6854 25.537 62.6502 25.701 62.5799C26.287 62.3572 26.6678 61.5662 26.8436 60.2068Z" fill="#603A02"/>
</svg>
