<?xml version="1.0" encoding="utf-8"?>
<!-- Generator: Adobe Illustrator 23.0.3, SVG Export Plug-In . SVG Version: 6.00 Build 0)  -->
<svg version="1.1" id="Layer_1" xmlns="http://www.w3.org/2000/svg" xmlns:xlink="http://www.w3.org/1999/xlink" x="0px" y="0px"
	 viewBox="0 0 875.2 158.8" style="enable-background:new 0 0 875.2 158.8;" xml:space="preserve">
<style type="text/css">
	.st0{enable-background:new    ;}
	.st1{fill:#231F20;}
	.st2{fill:#1AAF4B;}
	.st3{fill:#00A651;}
	.st4{fill:none;stroke:#00A651;stroke-width:3;stroke-miterlimit:10;}
	.st5{fill:#BE1E5F;}
	.st6{fill:#6C297D;}
	.st7{fill:#00A6CC;}
	.st8{fill:#FFC41C;}
	.st9{fill:#B9C6B4;}
</style>
<title>LandingLogo</title>
<g>
	<g class="st0">
		<path class="st1" d="M147.8,45.6h-31.1v17h27.5v15.8h-27.5V97h31.1v16.4H96.2V29.2h51.6V45.6z"/>
		<path class="st1" d="M187.9,94.8l-10.8,18.6h-22.2l22.1-34.2l-22.7-32.8h23l12.8,18.5l10.8-18.5h22.2l-22.4,33.7l23,33.2h-23
			L187.9,94.8z"/>
		<path class="st1" d="M257.1,45.5c10,0,17,4.6,20.6,10.4v-9.5h20.5v67h-20.5v-9.5c-3.7,5.9-10.8,10.4-20.8,10.4
			c-16.3,0-29.4-13.4-29.4-34.6S240.7,45.5,257.1,45.5z M263.1,63.4c-7.7,0-14.6,5.8-14.6,16.4s7,16.7,14.6,16.7
			c7.8,0,14.6-5.9,14.6-16.6S270.9,63.4,263.1,63.4z"/>
		<path class="st1" d="M342.7,45.5c16.8,0,28.7,9.2,32.2,25.2H353c-1.7-4.7-5-7.7-10.7-7.7c-7.3,0-12.4,5.8-12.4,16.9
			c0,11.2,5,16.9,12.4,16.9c5.6,0,8.9-2.8,10.7-7.7h21.8c-3.5,15.5-15.4,25.2-32.2,25.2c-19.7,0-33.6-13.2-33.6-34.4
			C309.1,58.8,323,45.5,342.7,45.5z"/>
		<path class="st1" d="M389,63.5h-8.2v-17h8.2V30.1h20.5v16.3h13.4v17h-13.4v26.9c0,4,1.7,5.6,6.2,5.6h7.3v17.4h-10.4
			c-13.9,0-23.6-5.9-23.6-23.3V63.5z"/>
	</g>
	<g class="st0">
		<path class="st2" d="M466.7,29.2h20.5v57.4c0,18.1-11,27.7-27.7,27.7c-17.3,0-29.4-10.1-29.4-29h20.4c0,7.2,3.1,10.7,8.4,10.7
			c4.9,0,7.8-3.1,7.8-9.4V29.2z"/>
		<path class="st2" d="M534.3,114.4c-19.7,0-34.6-13.2-34.6-34.4s15.2-34.4,34.8-34.4c19.7,0,34.8,13.2,34.8,34.4
			S554,114.4,534.3,114.4z M534.3,96.6c7.3,0,14.2-5.4,14.2-16.7c0-11.4-6.7-16.7-13.9-16.7c-7.4,0-13.9,5.3-13.9,16.7
			C520.6,91.2,526.9,96.6,534.3,96.6z"/>
		<path class="st2" d="M621.4,45.5c16.6,0,29.5,13.2,29.5,34.3s-13.1,34.6-29.5,34.6c-9.8,0-16.9-4.4-20.6-10.3v9.4h-20.5V24.6h20.5
			v31.3C604.5,49.9,611.8,45.5,621.4,45.5z M615.3,63.4c-7.7,0-14.6,5.9-14.6,16.6s7,16.6,14.6,16.6c7.8,0,14.8-6,14.8-16.7
			S623.1,63.4,615.3,63.4z"/>
		<path class="st2" d="M689,114.4c-17.9,0-29.9-10-30.8-22.9h20.3c0.5,4.7,4.7,7.8,10.3,7.8c5.3,0,8-2.4,8-5.4
			c0-10.8-36.5-3-36.5-27.6c0-11.4,9.7-20.8,27.2-20.8c17.3,0,26.9,9.6,28.2,22.8h-19c-0.6-4.6-4.1-7.6-9.8-7.6
			c-4.8,0-7.4,1.9-7.4,5.2c0,10.7,36.2,3.1,36.6,28.1C716.1,105.6,705.8,114.4,689,114.4z"/>
	</g>
	<g class="st0">
		<path class="st3" d="M77.3,91.4c0,0.2,0,0.4-0.1,0.7c-0.1,0.3-0.2,0.6-0.4,1c-0.1,0.3-0.3,0.7-0.5,1.1c-0.2,0.4-0.4,0.7-0.6,1
			c-0.3,0.5-0.8,1.1-1.4,1.8c-0.6,0.7-1.2,1.4-1.9,2.2s-1.4,1.5-2.2,2.3c-0.8,0.8-1.6,1.5-2.3,2.1c-0.6,0.5-1.3,1.1-2.2,1.7
			s-1.7,1.2-2.6,1.7c-0.9,0.5-1.9,1-2.8,1.3c-1,0.3-1.9,0.5-2.8,0.5c-0.8,0-1.6-0.2-2.4-0.5s-1.5-0.9-2.2-1.9
			c-0.7-0.9-1.3-2.2-1.8-3.8c-0.5-1.6-0.9-3.7-1.2-6.3c0-0.3,0-0.7-0.1-1.2c0-0.5-0.1-1.1-0.1-1.6c0-0.5-0.1-1-0.1-1.4
			c0-0.4-0.1-0.6-0.1-0.6c-0.2,0-0.4,0.3-0.8,0.8c-0.4,0.5-0.9,1.2-1.4,2c-0.5,0.8-1.1,1.8-1.8,2.9s-1.3,2.2-2,3.4
			c-0.8,1.5-1.6,2.8-2.4,4s-1.5,2.2-2.1,3c-0.7,0.8-1.3,1.4-1.9,1.8s-1.3,0.6-1.9,0.6c-1,0-1.8-0.2-2.4-0.6
			c-0.6-0.4-1.1-0.9-1.5-1.7c-0.4-0.8-0.6-1.8-0.8-3c-0.1-1.2-0.2-2.7-0.3-4.3c-0.1-2.8-0.2-5-0.3-6.5c-0.1-1.6-0.3-2.3-0.5-2.3
			c-0.3,0-0.7,0.3-1.3,1c-0.6,0.7-1.3,1.6-2.1,2.7s-1.7,2.5-2.7,4s-2,3.2-3,5c-0.3,0.5-0.6,1-0.9,1.6c-0.4,0.6-0.7,1.2-1.1,1.9
			s-0.8,1.2-1.1,1.8c-0.4,0.6-0.7,1.1-1,1.5c-0.4,0.6-0.8,1-1.4,1.3c-0.6,0.3-1.1,0.4-1.7,0.4c-0.9,0-1.6-0.2-2.2-0.6
			c-0.6-0.4-1.1-0.9-1.5-1.5s-0.7-1.4-0.8-2.3c-0.2-0.9-0.3-1.8-0.3-2.8c0-0.9,0-1.7,0.1-2.3c0-0.7,0.1-1.4,0.2-2.1
			c0.1-0.7,0.2-1.5,0.3-2.2s0.2-1.7,0.4-2.7c0.1-0.9,0.2-1.8,0.3-2.8c0.1-1,0.1-1.9,0.2-2.9c0.1-0.9,0.1-1.8,0.2-2.6
			c0.1-0.8,0.2-1.5,0.3-2c0.1-0.4,0.2-0.7,0.4-1.2c0.2-0.4,0.4-0.8,0.7-1.1c0.3-0.3,0.7-0.6,1.2-0.9c0.5-0.2,1.1-0.4,1.8-0.4
			c0.7,0,1.2,0.1,1.6,0.4c0.4,0.2,0.7,0.6,0.9,1c0.2,0.4,0.4,0.9,0.4,1.4c0.1,0.5,0.1,1.1,0.1,1.7c0,0.5-0.1,1.2-0.2,2.1
			c-0.1,0.9-0.3,1.8-0.5,2.9c-0.2,1-0.4,2.1-0.7,3.3c-0.3,1.1-0.5,2.2-0.7,3.3c-0.2,1-0.4,2-0.6,2.8c-0.2,0.8-0.3,1.5-0.3,2
			c0-0.1,0.2-0.3,0.4-0.6c0.2-0.3,0.4-0.8,0.7-1.2c0.3-0.5,0.6-1,0.9-1.6c0.3-0.5,0.6-1.1,0.9-1.6c0.3-0.5,0.5-0.9,0.7-1.3
			c0.2-0.4,0.3-0.6,0.4-0.7c0.4-0.6,0.8-1.3,1.3-2.1c0.5-0.8,1-1.6,1.6-2.4c0.5-0.8,1.1-1.6,1.6-2.3c0.5-0.7,1-1.4,1.5-1.9
			c1-1.1,2-1.9,3-2.4c1.1-0.5,2.2-0.8,3.4-0.8c1.3,0,2.4,0.4,3.2,1.3c0.9,0.9,1.4,2.1,1.7,3.5c0.1,0.5,0.2,1.2,0.3,2
			c0.1,0.8,0.1,1.6,0.1,2.5c0,0.9,0.1,1.8,0.1,2.7c0,0.9,0,1.7,0,2.4c0,0.7,0,1.3,0,1.7c0,0.4,0.1,0.7,0.1,0.7
			c0.2,0,0.5-0.3,0.8-0.8c0.4-0.5,0.8-1.2,1.2-2c0.4-0.8,0.9-1.7,1.4-2.6c0.5-0.9,1-1.8,1.4-2.6c0.7-1.2,1.5-2.4,2.3-3.6
			s1.6-2.2,2.5-3c0.8-0.9,1.6-1.6,2.3-2.1c0.7-0.5,1.4-0.8,2-0.8c0.4,0,0.8,0,1.2,0.1c0.4,0.1,0.8,0.2,1.2,0.4
			c0.4,0.2,0.7,0.3,1.1,0.6c0.3,0.2,0.6,0.5,0.7,0.7c0.4,0.6,0.6,1.2,0.8,1.9c0.2,0.7,0.3,1.4,0.4,2.3c0.1,0.8,0.1,1.7,0.2,2.7
			c0,1,0.1,2.1,0.2,3.3c0.2,2.2,0.6,3.9,1,5.2c0.4,1.3,1.1,1.9,1.9,1.9c0.4,0,0.8-0.1,1.4-0.4c0.6-0.3,1.2-0.6,1.9-1
			s1.4-0.9,2.1-1.4c0.7-0.5,1.4-1,2-1.5c0.7-0.5,1.4-1.1,2-1.7s1.3-1.2,1.9-1.8s1.3-1.3,1.9-1.9c0.6-0.7,1.3-1.4,2-2.1
			c0.4-0.4,1-0.7,1.5-0.7C77,90,77.3,90.5,77.3,91.4z"/>
		<path class="st3" d="M105.3,85.3c0,0.5,0,1.1-0.1,2S105,89,105,89.9c-0.1,0.9-0.1,1.8-0.2,2.7c-0.1,0.9-0.1,1.6-0.1,2.1
			c-0.1,1.4-0.2,2.8-0.3,4.2c-0.2,1.5-0.3,2.9-0.6,4.4c-0.2,1.5-0.5,2.9-0.8,4.4c-0.3,1.4-0.6,2.8-0.9,4.1c-0.3,1.1-0.6,2.1-0.9,3.2
			c-0.3,1.1-0.7,2.2-1.1,3.2c-0.4,1-0.9,2.1-1.3,3c-0.5,1-1,1.9-1.5,2.7c-2.2,3.4-5.4,5.2-9.6,5.2c-2.6,0-5.2-0.5-7.7-1.5
			c-0.9-0.3-1.8-0.8-2.8-1.3c-1-0.6-1.8-1.1-2.6-1.7c-0.8-0.6-1.4-1.2-1.9-1.9s-0.8-1.3-0.8-1.8c0-0.4,0-0.8,0.1-1.2
			c0.1-0.4,0.2-0.7,0.3-1.1c0.2-0.3,0.4-0.6,0.7-0.8c0.3-0.2,0.7-0.3,1.1-0.3c0.3,0,0.6,0.1,0.9,0.2c0.3,0.1,0.5,0.3,0.7,0.6
			c0.8,0.8,1.6,1.6,2.5,2.2c0.8,0.6,1.7,1.1,2.7,1.5c0.9,0.4,1.9,0.7,3,0.9c1.1,0.2,2.2,0.3,3.4,0.3c0.7,0,1.4-0.2,2-0.7
			c0.6-0.4,1.2-1,1.8-1.7c0.5-0.7,1.1-1.6,1.5-2.5c0.5-0.9,0.9-1.9,1.3-3c0.4-1,0.7-2.1,1-3.1c0.3-1.1,0.5-2.1,0.7-3
			c0.2-1.1,0.4-2.2,0.5-3.3c0.1-1.1,0.3-2.3,0.4-3.5c-0.7,0.6-1.4,1.1-2.3,1.7c-0.9,0.6-1.8,1.2-2.7,1.8s-1.9,1.1-2.9,1.7
			s-2,1-3,1.4c-1,0.4-1.9,0.7-2.8,1c-0.9,0.2-1.7,0.4-2.5,0.4c-1.2,0-2.2-0.2-3.1-0.7c-0.9-0.5-1.6-1.1-2.2-1.9s-1-1.7-1.3-2.7
			c-0.3-1-0.4-2-0.4-3.1c0-0.7,0.1-1.5,0.2-2.4c0.1-0.9,0.2-1.8,0.4-2.7c0.2-0.9,0.3-1.8,0.6-2.7c0.2-0.9,0.4-1.7,0.6-2.3
			c0-0.1,0.1-0.4,0.3-0.9c0.1-0.5,0.3-1,0.5-1.6c0.2-0.6,0.3-1.1,0.5-1.7c0.2-0.5,0.3-0.9,0.3-1c0.3-0.8,0.5-1.4,0.8-2
			c0.3-0.6,0.6-1.1,1-1.4s0.8-0.7,1.4-0.9c0.5-0.2,1.2-0.3,2-0.3c0.6,0,1.1,0.1,1.5,0.3c0.4,0.2,0.8,0.6,1,1.1
			c0.3,0.5,0.4,0.9,0.4,1.4c0,0.4,0.1,0.9,0.1,1.3c0,0.2-0.1,0.5-0.3,1c-0.2,0.5-0.5,1.1-0.8,1.7c-0.3,0.6-0.6,1.2-0.9,1.7
			c-0.3,0.5-0.4,0.9-0.5,1c-0.6,1.5-1.2,2.9-1.6,4.1c-0.4,1.2-0.6,2.5-0.6,3.7c0,0.6,0.1,1.2,0.2,1.7c0.1,0.5,0.3,1,0.5,1.3
			s0.4,0.7,0.7,0.9s0.5,0.3,0.7,0.3c0.7,0,1.5-0.1,2.5-0.4c0.9-0.3,1.9-0.6,3-1.1c1-0.5,2.1-1,3.1-1.7c1-0.7,2-1.4,2.9-2.2
			c0.9-0.8,1.6-1.6,2.3-2.5c0.6-0.9,1.1-1.7,1.3-2.6c0.1-0.2,0.1-0.5,0.1-1c0-0.5,0.1-1,0.1-1.6c0-0.6,0-1.2,0.1-1.9
			c0-0.7,0.1-1.3,0.1-1.9c0-0.6,0.1-1.2,0.1-1.7c0.1-0.5,0.1-0.9,0.2-1.2c0.4-1.1,0.8-2,1.4-2.6c0.6-0.6,1.4-0.9,2.3-0.9
			c0.8,0,1.4,0.1,1.9,0.3c0.5,0.2,0.9,0.5,1.1,0.9c0.3,0.4,0.4,0.9,0.5,1.4C105.2,83.8,105.3,84.5,105.3,85.3z"/>
	</g>
	<g class="st0">
		<path class="st4" d="M77.3,91.4c0,0.2,0,0.4-0.1,0.7c-0.1,0.3-0.2,0.6-0.4,1c-0.1,0.3-0.3,0.7-0.5,1.1c-0.2,0.4-0.4,0.7-0.6,1
			c-0.3,0.5-0.8,1.1-1.4,1.8c-0.6,0.7-1.2,1.4-1.9,2.2s-1.4,1.5-2.2,2.3c-0.8,0.8-1.6,1.5-2.3,2.1c-0.6,0.5-1.3,1.1-2.2,1.7
			s-1.7,1.2-2.6,1.7c-0.9,0.5-1.9,1-2.8,1.3c-1,0.3-1.9,0.5-2.8,0.5c-0.8,0-1.6-0.2-2.4-0.5s-1.5-0.9-2.2-1.9
			c-0.7-0.9-1.3-2.2-1.8-3.8c-0.5-1.6-0.9-3.7-1.2-6.3c0-0.3,0-0.7-0.1-1.2c0-0.5-0.1-1.1-0.1-1.6c0-0.5-0.1-1-0.1-1.4
			c0-0.4-0.1-0.6-0.1-0.6c-0.2,0-0.4,0.3-0.8,0.8c-0.4,0.5-0.9,1.2-1.4,2c-0.5,0.8-1.1,1.8-1.8,2.9s-1.3,2.2-2,3.4
			c-0.8,1.5-1.6,2.8-2.4,4s-1.5,2.2-2.1,3c-0.7,0.8-1.3,1.4-1.9,1.8s-1.3,0.6-1.9,0.6c-1,0-1.8-0.2-2.4-0.6
			c-0.6-0.4-1.1-0.9-1.5-1.7c-0.4-0.8-0.6-1.8-0.8-3c-0.1-1.2-0.2-2.7-0.3-4.3c-0.1-2.8-0.2-5-0.3-6.5c-0.1-1.6-0.3-2.3-0.5-2.3
			c-0.3,0-0.7,0.3-1.3,1c-0.6,0.7-1.3,1.6-2.1,2.7s-1.7,2.5-2.7,4s-2,3.2-3,5c-0.3,0.5-0.6,1-0.9,1.6c-0.4,0.6-0.7,1.2-1.1,1.9
			s-0.8,1.2-1.1,1.8c-0.4,0.6-0.7,1.1-1,1.5c-0.4,0.6-0.8,1-1.4,1.3c-0.6,0.3-1.1,0.4-1.7,0.4c-0.9,0-1.6-0.2-2.2-0.6
			c-0.6-0.4-1.1-0.9-1.5-1.5s-0.7-1.4-0.8-2.3c-0.2-0.9-0.3-1.8-0.3-2.8c0-0.9,0-1.7,0.1-2.3c0-0.7,0.1-1.4,0.2-2.1
			c0.1-0.7,0.2-1.5,0.3-2.2s0.2-1.7,0.4-2.7c0.1-0.9,0.2-1.8,0.3-2.8c0.1-1,0.1-1.9,0.2-2.9c0.1-0.9,0.1-1.8,0.2-2.6
			c0.1-0.8,0.2-1.5,0.3-2c0.1-0.4,0.2-0.7,0.4-1.2c0.2-0.4,0.4-0.8,0.7-1.1c0.3-0.3,0.7-0.6,1.2-0.9c0.5-0.2,1.1-0.4,1.8-0.4
			c0.7,0,1.2,0.1,1.6,0.4c0.4,0.2,0.7,0.6,0.9,1c0.2,0.4,0.4,0.9,0.4,1.4c0.1,0.5,0.1,1.1,0.1,1.7c0,0.5-0.1,1.2-0.2,2.1
			c-0.1,0.9-0.3,1.8-0.5,2.9c-0.2,1-0.4,2.1-0.7,3.3c-0.3,1.1-0.5,2.2-0.7,3.3c-0.2,1-0.4,2-0.6,2.8c-0.2,0.8-0.3,1.5-0.3,2
			c0-0.1,0.2-0.3,0.4-0.6c0.2-0.3,0.4-0.8,0.7-1.2c0.3-0.5,0.6-1,0.9-1.6c0.3-0.5,0.6-1.1,0.9-1.6c0.3-0.5,0.5-0.9,0.7-1.3
			c0.2-0.4,0.3-0.6,0.4-0.7c0.4-0.6,0.8-1.3,1.3-2.1c0.5-0.8,1-1.6,1.6-2.4c0.5-0.8,1.1-1.6,1.6-2.3c0.5-0.7,1-1.4,1.5-1.9
			c1-1.1,2-1.9,3-2.4c1.1-0.5,2.2-0.8,3.4-0.8c1.3,0,2.4,0.4,3.2,1.3c0.9,0.9,1.4,2.1,1.7,3.5c0.1,0.5,0.2,1.2,0.3,2
			c0.1,0.8,0.1,1.6,0.1,2.5c0,0.9,0.1,1.8,0.1,2.7c0,0.9,0,1.7,0,2.4c0,0.7,0,1.3,0,1.7c0,0.4,0.1,0.7,0.1,0.7
			c0.2,0,0.5-0.3,0.8-0.8c0.4-0.5,0.8-1.2,1.2-2c0.4-0.8,0.9-1.7,1.4-2.6c0.5-0.9,1-1.8,1.4-2.6c0.7-1.2,1.5-2.4,2.3-3.6
			s1.6-2.2,2.5-3c0.8-0.9,1.6-1.6,2.3-2.1c0.7-0.5,1.4-0.8,2-0.8c0.4,0,0.8,0,1.2,0.1c0.4,0.1,0.8,0.2,1.2,0.4
			c0.4,0.2,0.7,0.3,1.1,0.6c0.3,0.2,0.6,0.5,0.7,0.7c0.4,0.6,0.6,1.2,0.8,1.9c0.2,0.7,0.3,1.4,0.4,2.3c0.1,0.8,0.1,1.7,0.2,2.7
			c0,1,0.1,2.1,0.2,3.3c0.2,2.2,0.6,3.9,1,5.2c0.4,1.3,1.1,1.9,1.9,1.9c0.4,0,0.8-0.1,1.4-0.4c0.6-0.3,1.2-0.6,1.9-1
			s1.4-0.9,2.1-1.4c0.7-0.5,1.4-1,2-1.5c0.7-0.5,1.4-1.1,2-1.7s1.3-1.2,1.9-1.8s1.3-1.3,1.9-1.9c0.6-0.7,1.3-1.4,2-2.1
			c0.4-0.4,1-0.7,1.5-0.7C77,90,77.3,90.5,77.3,91.4z"/>
		<path class="st4" d="M105.3,85.3c0,0.5,0,1.1-0.1,2S105,89,105,89.9c-0.1,0.9-0.1,1.8-0.2,2.7c-0.1,0.9-0.1,1.6-0.1,2.1
			c-0.1,1.4-0.2,2.8-0.3,4.2c-0.2,1.5-0.3,2.9-0.6,4.4c-0.2,1.5-0.5,2.9-0.8,4.4c-0.3,1.4-0.6,2.8-0.9,4.1c-0.3,1.1-0.6,2.1-0.9,3.2
			c-0.3,1.1-0.7,2.2-1.1,3.2c-0.4,1-0.9,2.1-1.3,3c-0.5,1-1,1.9-1.5,2.7c-2.2,3.4-5.4,5.2-9.6,5.2c-2.6,0-5.2-0.5-7.7-1.5
			c-0.9-0.3-1.8-0.8-2.8-1.3c-1-0.6-1.8-1.1-2.6-1.7c-0.8-0.6-1.4-1.2-1.9-1.9s-0.8-1.3-0.8-1.8c0-0.4,0-0.8,0.1-1.2
			c0.1-0.4,0.2-0.7,0.3-1.1c0.2-0.3,0.4-0.6,0.7-0.8c0.3-0.2,0.7-0.3,1.1-0.3c0.3,0,0.6,0.1,0.9,0.2c0.3,0.1,0.5,0.3,0.7,0.6
			c0.8,0.8,1.6,1.6,2.5,2.2c0.8,0.6,1.7,1.1,2.7,1.5c0.9,0.4,1.9,0.7,3,0.9c1.1,0.2,2.2,0.3,3.4,0.3c0.7,0,1.4-0.2,2-0.7
			c0.6-0.4,1.2-1,1.8-1.7c0.5-0.7,1.1-1.6,1.5-2.5c0.5-0.9,0.9-1.9,1.3-3c0.4-1,0.7-2.1,1-3.1c0.3-1.1,0.5-2.1,0.7-3
			c0.2-1.1,0.4-2.2,0.5-3.3c0.1-1.1,0.3-2.3,0.4-3.5c-0.7,0.6-1.4,1.1-2.3,1.7c-0.9,0.6-1.8,1.2-2.7,1.8s-1.9,1.1-2.9,1.7
			s-2,1-3,1.4c-1,0.4-1.9,0.7-2.8,1c-0.9,0.2-1.7,0.4-2.5,0.4c-1.2,0-2.2-0.2-3.1-0.7c-0.9-0.5-1.6-1.1-2.2-1.9s-1-1.7-1.3-2.7
			c-0.3-1-0.4-2-0.4-3.1c0-0.7,0.1-1.5,0.2-2.4c0.1-0.9,0.2-1.8,0.4-2.7c0.2-0.9,0.3-1.8,0.6-2.7c0.2-0.9,0.4-1.7,0.6-2.3
			c0-0.1,0.1-0.4,0.3-0.9c0.1-0.5,0.3-1,0.5-1.6c0.2-0.6,0.3-1.1,0.5-1.7c0.2-0.5,0.3-0.9,0.3-1c0.3-0.8,0.5-1.4,0.8-2
			c0.3-0.6,0.6-1.1,1-1.4s0.8-0.7,1.4-0.9c0.5-0.2,1.2-0.3,2-0.3c0.6,0,1.1,0.1,1.5,0.3c0.4,0.2,0.8,0.6,1,1.1
			c0.3,0.5,0.4,0.9,0.4,1.4c0,0.4,0.1,0.9,0.1,1.3c0,0.2-0.1,0.5-0.3,1c-0.2,0.5-0.5,1.1-0.8,1.7c-0.3,0.6-0.6,1.2-0.9,1.7
			c-0.3,0.5-0.4,0.9-0.5,1c-0.6,1.5-1.2,2.9-1.6,4.1c-0.4,1.2-0.6,2.5-0.6,3.7c0,0.6,0.1,1.2,0.2,1.7c0.1,0.5,0.3,1,0.5,1.3
			s0.4,0.7,0.7,0.9s0.5,0.3,0.7,0.3c0.7,0,1.5-0.1,2.5-0.4c0.9-0.3,1.9-0.6,3-1.1c1-0.5,2.1-1,3.1-1.7c1-0.7,2-1.4,2.9-2.2
			c0.9-0.8,1.6-1.6,2.3-2.5c0.6-0.9,1.1-1.7,1.3-2.6c0.1-0.2,0.1-0.5,0.1-1c0-0.5,0.1-1,0.1-1.6c0-0.6,0-1.2,0.1-1.9
			c0-0.7,0.1-1.3,0.1-1.9c0-0.6,0.1-1.2,0.1-1.7c0.1-0.5,0.1-0.9,0.2-1.2c0.4-1.1,0.8-2,1.4-2.6c0.6-0.6,1.4-0.9,2.3-0.9
			c0.8,0,1.4,0.1,1.9,0.3c0.5,0.2,0.9,0.5,1.1,0.9c0.3,0.4,0.4,0.9,0.5,1.4C105.2,83.8,105.3,84.5,105.3,85.3z"/>
	</g>
	<path class="st5" d="M825,57.6c6.3-3.5,6.3-9.1,0-12.6L797,29.5c-6.3-3.5-11.4-0.4-11.4,6.7v30.2c0,7.1,5.1,10.2,11.4,6.7L825,57.6
		z"/>
	<path class="st6" d="M825.1,113.8c6.3-3.5,6.3-9.1,0-12.6L797,85.7c-6.3-3.5-11.4-0.4-11.4,6.7v30.3c0,7.1,5.1,10.2,11.4,6.7
		L825.1,113.8z"/>
	<path class="st7" d="M774.2,29.5c6.3-3.5,6.3-9.1,0-12.6L746.1,1.4C739.8-2,734.7,1,734.7,8.1v30.2c0,7.1,5.1,10.2,11.4,6.7
		L774.2,29.5z"/>
	<path class="st8" d="M774.2,141.8c6.3-3.5,6.3-9.1,0-12.6l-28.1-15.5c-6.3-3.5-11.4-0.4-11.4,6.7v30.2c0,7.1,5.1,10.2,11.4,6.7
		L774.2,141.8z"/>
	<path class="st2" d="M774.2,85.7c6.3-3.5,6.3-9.1,0-12.6l-28.1-15.5c-6.3-3.5-11.4-0.4-11.4,6.7v30.2c0,7.1,5.1,10.2,11.4,6.7
		L774.2,85.7z"/>
	<path class="st2" d="M870.5,85.7c6.3-3.5,6.3-9.1,0-12.6l-28.1-15.5c-6.3-3.5-11.4-0.4-11.4,6.7v30.2c0,7.1,5.1,10.2,11.4,6.7
		L870.5,85.7z"/>
	<path class="st9" d="M869.9,87.1L869.9,87.1L869.9,87.1L869.9,87.1L869.9,87.1z"/>
</g>
</svg>
