<svg xmlns="http://www.w3.org/2000/svg" viewBox="0 0 875.17 186.13"><defs><style>.cls-1{font-size:120px;fill:#231f20;font-family:Poppins-Bold, Poppins;}.cls-1,.cls-3{font-weight:700;}.cls-2{fill:#1aaf4b;}.cls-3{font-size:65px;fill:#00a651;stroke:#00a651;stroke-miterlimit:10;stroke-width:3px;font-family:SegoeScript-Bold, Segoe Script;}.cls-4{fill:#be1e5f;}.cls-5{fill:#6c297d;}.cls-6{fill:#00a6cc;}.cls-7{fill:#ffc41c;}.cls-8{fill:#b9c6b4;}</style></defs><title>LandingLogo</title><g id="Layer_1" data-name="Layer 1"><text class="cls-1" transform="translate(88.75 113.4)">Exact<tspan class="cls-2" x="338.27" y="0">Jobs</tspan></text><text class="cls-3" transform="translate(1.5 113.41)">my</text><path class="cls-4" d="M1404.1,264.93c6.26-3.45,6.26-9.11,0-12.57L1376,236.82c-6.25-3.46-11.37-.44-11.37,6.71v30.23c0,7.15,5.12,10.17,11.37,6.71Z" transform="translate(-579.05 -207.29)"/><path class="cls-5" d="M1404.13,321.13c6.25-3.46,6.25-9.12,0-12.58L1376,293c-6.26-3.46-11.38-.44-11.38,6.71V330c0,7.15,5.12,10.17,11.38,6.72Z" transform="translate(-579.05 -207.29)"/><path class="cls-6" d="M1353.24,236.84c6.26-3.46,6.26-9.12,0-12.58l-28.11-15.54c-6.26-3.45-11.38-.43-11.38,6.72v30.22c0,7.15,5.12,10.17,11.38,6.71Z" transform="translate(-579.05 -207.29)"/><path class="cls-7" d="M1353.26,349.1c6.26-3.46,6.26-9.12,0-12.57L1325.15,321c-6.26-3.46-11.38-.44-11.38,6.71v30.23c0,7.15,5.12,10.17,11.38,6.71Z" transform="translate(-579.05 -207.29)"/><path class="cls-2" d="M1353.27,293c6.25-3.46,6.25-9.12,0-12.58l-28.12-15.53c-6.26-3.46-11.38-.44-11.38,6.71v30.22c0,7.15,5.12,10.17,11.38,6.72Z" transform="translate(-579.05 -207.29)"/><path class="cls-2" d="M1449.52,293c6.26-3.46,6.26-9.12,0-12.58L1421.4,264.9c-6.25-3.45-11.37-.43-11.37,6.72v30.22c0,7.15,5.12,10.17,11.37,6.71Z" transform="translate(-579.05 -207.29)"/><path class="cls-8" d="M1448.9,294.37s0,0,0,0,0,0,0,0l0,0h0Z" transform="translate(-579.05 -207.29)"/></g></svg>